<mxfile host="app.diagrams.net" agent="Mozilla/5.0 (X11; Linux x86_64) AppleWebKit/537.36 (KHTML, like Gecko) Chrome/137.0.0.0 Safari/537.36" version="28.0.7">
  <diagram name="Page-1" id="mSTsi9d2namEaJ1ftMb9">
    <mxGraphModel dx="1058" dy="899" grid="1" gridSize="10" guides="1" tooltips="1" connect="1" arrows="1" fold="1" page="1" pageScale="1" pageWidth="850" pageHeight="1100" math="0" shadow="0">
      <root>
        <mxCell id="0" />
        <mxCell id="1" parent="0" />
        <mxCell id="RPyfaxSfyp_0bqqtKNeq-3" value="" style="edgeStyle=orthogonalEdgeStyle;rounded=0;orthogonalLoop=1;jettySize=auto;html=1;" edge="1" parent="1" source="RPyfaxSfyp_0bqqtKNeq-1" target="RPyfaxSfyp_0bqqtKNeq-2">
          <mxGeometry relative="1" as="geometry" />
        </mxCell>
        <mxCell id="RPyfaxSfyp_0bqqtKNeq-1" value="Ask to AI" style="rounded=0;whiteSpace=wrap;html=1;verticalAlign=bottom;spacingTop=8;spacing=7;" vertex="1" parent="1">
          <mxGeometry x="20" y="380" width="130" height="70" as="geometry" />
        </mxCell>
        <mxCell id="RPyfaxSfyp_0bqqtKNeq-10" value="" style="edgeStyle=orthogonalEdgeStyle;rounded=0;orthogonalLoop=1;jettySize=auto;html=1;" edge="1" parent="1" source="RPyfaxSfyp_0bqqtKNeq-2" target="RPyfaxSfyp_0bqqtKNeq-9">
          <mxGeometry relative="1" as="geometry" />
        </mxCell>
        <mxCell id="RPyfaxSfyp_0bqqtKNeq-2" value="generate embeedings" style="rounded=0;whiteSpace=wrap;html=1;" vertex="1" parent="1">
          <mxGeometry x="270" y="385" width="130" height="60" as="geometry" />
        </mxCell>
        <mxCell id="RPyfaxSfyp_0bqqtKNeq-4" value="text" style="rounded=1;whiteSpace=wrap;html=1;" vertex="1" parent="1">
          <mxGeometry x="180" y="380" width="60" height="30" as="geometry" />
        </mxCell>
        <mxCell id="RPyfaxSfyp_0bqqtKNeq-6" value="PGVector" style="shape=cylinder3;whiteSpace=wrap;html=1;boundedLbl=1;backgroundOutline=1;size=15;verticalAlign=bottom;" vertex="1" parent="1">
          <mxGeometry x="690" y="360" width="90" height="110" as="geometry" />
        </mxCell>
        <mxCell id="RPyfaxSfyp_0bqqtKNeq-7" value="" style="shape=image;verticalLabelPosition=bottom;labelBackgroundColor=default;verticalAlign=top;aspect=fixed;imageAspect=0;image=data:image/png,iVBORw0KGgoAAAANSUhEUgAAAgAAAAIACAYAAAD0eNT6AAAgAElEQVR4Aex9B3wVVfb/Bey9rLuu+991V93Vbf7WgisqCoooq1JcG+qqrCgiTQQEBAEpAlIkdEINJfTeA4FA6L1DKCH0UEIgEEIa9893Ng8fySsz587Mm3lz7ueTz3uZN3fm3nPPPefce8/5HiG4MAWYAkwBpoDVFLhDCPFXIUQlIcTbQojPhRDfCCE6CSH6CiFGCSFmCCGWCCE2CSH2+f0dF0KcLvaXJYSQQoi8ouvpRfdvF0KsE0IkCyEWCCGmCSHGCSH6CCHaCCG+FELUEEI8d/n6I0KIO63uOD+fKcAUYAowBZgC0UqBW4QQjxUp9q+EEN2FEKOLlPluIUR2kbKGwnbiH4yII0KIFUWGSLvLxsR/LhsQzwoh7o3WQeN+MQWYAkwBpgBTQA8FrhdCPCqE+LcQorkQYkiRgj/qUKVupqFx/vKuwebL/Z8ihGhftIPwez1E43uYAkwBpgBTgCngJgpgWxxb5I2EECOLttQvekDRGzUazl4+0lh2+RghpuhIAzSDocSFKcAUYAowBZgCjqcAtrirX1ZcnYUQiUKIU6zolY4pcNwB34PvLtOzPBsEjud/biBTgCngQQrcfvmc+iEhxD+FEP8qOvOFY5rPOQ3b3P5/bYUQXYQQHYquNy6695Ois++qRQ5uWAU+UfRspzmYXSuEKCeEwDk9HOPSWNkrKXs9OwYXhBCLL88v+BVUEELc6MG5xl1mCthKgVsvexb/4vL25QNh/u4SQuBeLtFFAYxrWSFETSFEayHECCHE0suKGh7i8BbPt1HxFQohTl5uS0qRk9msom31Xpc92L8tMjygGP542cC4weRhuKbIwGkhhJgnhMBZth6lxfdYRyccpWCHoIEQ4n6Tx5sfxxSIKgpAgP1BCPF80Sqr/uXewZLuX+SQg1CfbUXhPxmKAg6WOkKNsCraI4RYWyQ04c2MMz5s6SGE6J3Lzk8VhRB/YeMh4ryG0LKXLyv0VkKI+Msr+TWXBSv4wM0K7IQQYkNRSBzC4xAqV00I8fDlkDms4MOVB4uUy2whhC9Uzs30iPa2byxyLHxSCFEq3ODy70yBaKNA6aLt0jcvK/CmRcp9fpESRniO0wVA5mXP6K1CCKzsBhatOD8qMlo4hMg8boVzFbbrsXKCY9quy3Hdl1zAH2byL+YD+o3Y9q5CiP8KIZ4pOnroWfSbme/jZ9krfw4LIQYUGbVlzJs6/CSmgDMocHORwPqiSFki7vZclAtxeAoDmAQrVOxevF+0PX2bM4bEsa2AYYhtfOy8LBdC5EY5n7CytVfZOp3eMAZg5AE8iQtTwJUUgJID8hecpxAuw6FEVws5xFDjPBBHDNg1gPOY2efAbmKcu4uOegYVAbM4XUhz+67mZ6aHNfSA7wocUn/lpsnMbfUeBW66fH4Jb2hsY4FpvbZFa4YAxEoXZ8CxRV7mQFjTc/brVm6DJz4c9VZfXu3DYc4MGvIzmI7RyAM4Appe5BPCRwRulXhR1m4gYtW7fD4797KVmsMC3BIFBrquKsJM/1AI8TuX89Bvivw9cDQSjYKa+8TjajUPIFcCQlERzsqFKWArBaD04Xm9hQV4xBQYohXgDPdZUVITWxmA8DLsYiAJC5wlC5hvIsY3Vism0vPvuOMO+cADD8iHH35YPvHEE7J8+fKyUqVK8t///rd8++23r/p755135Oeffy4/+eQT7Xq1atW0e1EHdf/2t79pz7rvvvvkTTfdRGqPi/gTkR69ixypCdOSqzAF9FEAsdV1irJs8da+81Y4iG+fVATfimMDp2wRYrXfsSj+PtqFMfevaF5ce+21mhJ+7rnnNCXdsGFD2blzZxkXFyfnzp0rV61aJXfv3i1PnTolCwsLpZUlOztbHjhwQK5evVrOmjVLjhgxQnbv3l02bdpUfvTRRxJthLHgIqUfqK04PkM2xZf0iXO+iykQngKIS4UT32T2wnbdig3RB4gFRxz5/4UfatPvQHga0ObcEMoZSKDytTBG7o033qittqtXry6bNGki+/fvL+fPny/37t0r8/PzrdTpljz7woULctu2bXLGjBnyp59+kg0aNJBVqlSR/+///T+38QKO1l43fUbzAz1DAaDjARIV8e1uY35ub+AxQ071CUXRBlZC1AIKdybzTfTMm1tvvVU+++yzsl69ejI2NlYuWbJEHjlyxBIl7NSHnjx5Ui5YsEB269ZNfvDBB/Kvf/2rvOaaa5wuazYVRdUwwJBnVLdaR+GRjfMkrB6dztzcPvoY4QweYZnw40DoIWLuVQoEDM73Eb3A4+JiGvzmN7+Rr732mvz222/lhAkT5J49eyzfoneq0g/XrpycHO1YoUePHrJq1aryrrvucirvA28FiJlcmAIBKfCnIocyds5ysfBWUL7YHYBDIWCObwnIIcEvvloEm+xU4cftCsLT1113nXzmmWe0s/Bp06bJ48ePh9N5/HsICsCXYcuWLbJPnz6a38O9997rNN4DdDpgzLkwBTQKAF98FHtl86rVz3hAyCFijZHlDo6fwQpQ+pBgx2lCLmB7fv3rX8vHH39cW93Ce7xly5ayV69ecvTo0XLq1Kna9u6aNWu0M+B9+/ZJ319GRoY8ffq09ofvvusbNmyQ69atk0lJSZpjGZ7Tt29f2bFjR02hfvzxx9r58aOPPiqhCEqXLh2wXXbS784775Svv/665oy3dOlSiRUsF2spAJ+CLl26aIaWE3igiN8AJY2cEVw8SgFkoUKSG1et+LFi+e1vfyvLlSsnEfqDM8kWLVpoE2zAgAGaMJ8+fbpctGiRJpwhoPG3cePGK4IbAnz79u1XfofQx9nevHnztC3PwYMHaw5AHTp0kM2bN5f//e9/te09vPOPf/yjxHmonUI7wu9C1jwgFSIJ0n1FcwVe/XFOBHm65ZZbNEFbp04d7ax2ypQpcvPmzfL8+fPWSnkdTy8oKJCHDx+WycnJcuTIkbJ9+/Yab73wwgvynnvusYSnypQpo4XFgY/B4250zNNBWtfcgogHHKsg8uC2226zZMwNyAugsnYSQgCenYtHKIDBRj5zZL6LNAMGfD/OICEUa9eurSn2yZMna0L8xIkTjpnoFy9elKmpqZowx8qva9eumscwjBKs+G6++eaAfXMqzXW2C2FGQOtzREpZ0Pill166claNkDKrw8msZEDsLixfvlwOGTJENmrUSD7//PPy9ttvN8xHMCY+/fRTTdFg54KLMymA3ZfZs2drxgAMV51z0Ir7kHPgA85EGN0WAJy03i5KdWsFExl+Jjxo//73v0tslcbExGjK9Ny5c86crYRWHTt2TOvT8OHDNSUF4+DBBx90xFZwBIWNYT7xtRVAMaAhHK4Qz+2F1eylS5e0kDqsGhFmB0/8G264oQQN7777bk2RzJw5U+bl5RG4latEkgIwBjDGb7zxRiQjC5BK++noVoPe7N0/imBkSwgOn3C14xNb54ipxWp55cqVnj1/xHY0jh2w0vvqq680BLNf/epXER0bO8af8g4gun3zzTfaObsXFL4eJZSbm6vNHxhCrVu31kB1cLzAJToogPDKH3/8UVscUeaMYh3s8v0khEBOFy4upwCgV5FBKiJpVHFeX7lyZW0bH6hfLMBDCyjEGScmJmr+BzVr1pS///3vPWkUPPnkk7Jnz54yLS0tNMH4V6ZAlFMAO13AHIAsVVTsRuuncrSAu7X/o0KI9TYzjYa7jW0sODllZmZG+fS0vnugIZy32rVrp20Pwovb7jG1431/+tOftD6mpKRYT1R+A1PAZRQ4evSobNOmjbR5pxBw70jLbTQs2N2a0+Wtv67IsxPe27YoCzhjwasV548cVmStZMFWL+KMgcZWq1Yt+Yc//MGWMbaCl7CqQZIXGDg46+bCFGAKhKYAnI+RxwDhrFbMySDP3CuEeN7letETzUdoH1LG2sIcyLoF5z14L3OJHAWwOoADEbKj3X///baMvQqP4WgDSWEYdCZyPOPWN5/Nvijxl32RHR0R6oxoKZW5aKAufAOAEHujJzSpCzuJDFBAc7OUIeBtDG9kxNFzcSYFsI0OTASkTP3lL39pKT8Y4Tc49OFoiH1BnMk3VrcqN69ApqWflhv2HJGJG/bI8Ys3y0EzV8ku8Yvlt0PmykZ9p8va3SbKmh3GyDdaDZcVGw/U/srV7yufqBMT9q98owGyUtNYWbXVCO0ZH3cZL+v2miKbDJglv49bIPtNWyHHJm6S89emyPW7D8vUYxkyK/ui1d22/PkwBJAG2chcVLh3hxDiry7Uj1HbZKR8bSeEgIVmGRNgZQk0qzNnzljO0PwCcykAYw1jh9zqkUhe8thjj2mK380x+uaOSHQ+DQoeSnX5tjQ5ackW2XvKMtly8Fz5SZfx8pVvhoRV4HqUvBX3PFO/n3y3/WjZdMAsGTM5WU5eulWu2XVIHs3IkoUuOppauHChltbYSj1Q9OxzQoj3o1ajuqhj9wghEqwccMTpY9XGscXRIbR9SGQ4LrAapxyASAA64RJdFICi33nguJy9aqeMmbxMNugzTb7WcphjFbyK0YDdh/90Hic7jU7UDIPt+9Ml+u/kAp+asmXLWrYY9NM3yB3C4YIRMhgeE0Ic8RsMUwccin/WrFnsnOXkma7YNjgUApa2adOm8oEHHjCNfwDVPGjQIMmx6YoD5IDq2CJfvjVNxs5aLZsNnC1rtImTZev2jkplr9dQeKpuH/le+zGy7YgEOW3ZNnnwhPOinbDbBgAy5L+wSkcUPXejEOKPEdKBnn1tJavS9d53330svB0geCPRBBwVINwQzp0UoYFoEBw1cCRIJEbPmnfm5OZr2/lvthnpaaUfzjio3GywbB47R/Mx2HHguHTKyQFAxzCnA6FHUuZ4kDpIHQ+UWS42UODfl8F9kK2NJKSD1QNKH5KTOCFpijWijJ9qhAJwJPzhhx+0vAbBeMb/OnKhuwm4p7Dwkjx1NlvuOXxKrtpxQM5bk6Jt8Y5KWC8Hz1qtnV//MGaRtvWL7V/fH67hbBt/I+at0/5w3g3HMpx9b0k9JvcfOy0zz10wQm7H34uz8OQt+2WdnpPZENDhkPivFsNk5/hFcsX2NJmbH/kjgz179mgJzfznrMnfgRnQhfMJWGsBNLLC2Q+oc+np6Y4XQsEaiFXKsYwsCct79Y6D2pblgnW7tTNKOPSMXrDhirD2CW18wgsZv0N4437UXbvrkEw5eEJzADqfkxvslZ66jnSmgJxFHoPiQuN3v/udRB55Jxac1YIncFYNb/Pvhs2XtX6coDmkPflFeK/ycKu+cL8/Xa+vrNJiqIQ3euN+M2W38UlyzMKNMmnTPrn78El5waWhbPCgh7d+uP7z7//jMUQnYHdgzupdWghjJOfK/PnzTT3uKy4PhBATOFTQfCMAiXy6BiB2CYFs5B5s9yN1rpNLdk6uTDl0UhOa8YkbZY8JSzRvXTjmwPHo2Qb9LBVEOO988etBElugn3WfpIUroQ1x89drimXjniPy5JnIp5q1awwB6fzll19KIBIi41xWVpZdrw75HqyyNu09qo0LPM/fbjdK4qzWyUqo7Be9ZbXWIzR+HjBjpWaEIkwOuxNuKNg5gXHjZBo7rW3gyQa9p2k7Thfz8iMyzNjlbdCggZVJyVYKIX5pvhr05hOh/PsbUezh7i1VqpSWh9xJUL3YYtx3NENbjSNet3G/GVossB0rNTOEBAwRhBIh5vinSclyYtIWuXL7AXnoxBlZUFgYkYlu5UsjHdKXX1Co7db0nbpcW43qjRU3Y6ytfgb68mGnsbLdiASNj/YdOeWYM+VAPLV0S6p8v2M8GwI6jgb8eeeFrwbIDqMWSiwiIuEzsHTpUvnQQw8pLSJD6Jp9Qog/e1Nlm9vrH0MQ2fDgwUM7ISEh0Dy29Rq27denHJZD56zRwogwGfwnRzR9h9VfvXWc5kUNb2psAR85edZWekfDy3BmPzV5m2w2cJbEtmo08Ui4vrzUJFbbKcARAkLwnLZLAAUGcB9ECYTrC/9e8vgJO0HwPck4m23rVM3OzpaNGze2ajcgSwhRxVx16K2ndTRT+SMz34kTJ2xlMP+XYYUfN3+d/KzHJPnPL529PWuHkILRg2OFrmOTNMWGGONIbQv6j5OTvgP2FaFWdX+a4vnwM3+eBO8AOW9kwnp54LhzwtDy8gu0YxivGWj+Y6PyvVy9vlp4IfyQ7CzLly+3ajcgTwjxobfUtjm9/dos5V+6dGnZtm1bafe2Lbb1gaj147gkDZ5TZWJ4pS52Cz7oNFYzCuau3iWPnPLeTgH4Bt7TWOnDkc4rY6/ST/g84Dhka+oxR6DXwS8GcfJuOcJTob1VdT/tNlHzC7HrCBH+PO+9957hXWUdegoRAvXNUYveeEoDHUTVNVDA7p87d66dxqQGBwqva+B5WzU5vPRcxBjDJwI0RaRCtO4SZGRdkMPnrmVj0eBZcvG5ANhdhC0CwCfSIWgIi4TDbvE28v8ljwGC0QS5DbALZpch0K9fP3n99dfr0i8G9BSMACxquYShwLtCCBBLeQCAwX7gwAFblD+89cct2qStXoMxMl/XP+lD0QrbhDg6gEEAByI4xLm5wB8CCWGAyR6q3/ybcf5BQh3Qdnva8YixCHZ0pi/fLuHHwGNofAx9NHu95TAtbNkOQ2DDhg1WHQl8G0b/efpnwPtmm6H8X3zxRXn2rPXbx8dPn9PwwCs0HsiTW3Hl5pvoRj/LN+yvOVICxGbXwROO2ALWo23g3d5q6DzHh+sZHQ+n3v/O96M1TAzstESi4L2Ih3cqfdzSLuysAr/EakdQC48EABjEpRgF7hVCHDRD+SMN7MWL1qa5RGw+gFXYmY9u0VslcLDSanFZ0M5csUNGStiHUjAAbUKIm9cx5a0a/3DPxZz9uv9MLRrFaiUSiA8QLfBys8FsCCguGN7+frQWahyIxmZe6969uyxTpozyjnQx3daLUQN/tgCuF0IsL0YgEsHr1atnqbMfhDfOF1l4O0/xBxL8AJtBTDmgawGUg+3YSBUkluk5camMppj9QDR307U3vh2uoRPiCM/OcuZ8jraAcBOtnNpW+AcdPmltmnb4kd12220knRRCr/X+WQV6+9uwEETSTfQOHTpYNoeBbd59/BL2yla02iMtROAg1n7kQrlkc6ptaU1hcwCOl1d9zjUaEVYYMzlZpp+2F9kRIEKvfjOEdwMU5QqiZSCfrTTkNm/eLAH9bYau8nvG995W/UIA31+ZqAjzs6JgixBny897DHgl0orajvcjVhuwuQAmsmpnANgPwH2woz/8DnUDA8cDrYfO08CGrJAngZ6J3QAcSfD4qY8fck8krNsdiMymXDty5Ih88sknlfVVMZ0HHejJ8g8hRG4xYhgmLpCcrCjIlMYhPOqT0smCDauv1GMZprMPDEeE9CFiwcn957YF5++GfabbZghgl2j84k18PKS4E+DjZ4BEnci0JkcJ0n2bjBeAqLePvWYB3CCE2Kaq/D/++GN5yeRzXYSVIVseC+/gwtE30dz8CWdBeOKbXeAngjBFN9OG2/4/3geQD86Y4fRrR8GOEXJqMP3VZQ/mNzKdWlEAKle/fn3Di9UQ+i5fCFHdS0bATyGIoYuw7777riwoMDfXNBQCwoV4AqpPQCfTEEc6VsSGQ+BYnaHRyXSN1rbB6bfN8ARbclggTfL3cQtYBpm0G/BV3xmWZSxt06aNLl2lU9flCCFe9IIRUEkV7KdixYoyLy/PVOMO0LPPNezPE8+kiedUZQAFjZzuZhbsGiGzmVP7zO0yx6CFj0Dn+EXytA1YAnNW72Jj0iRZVKlprOb4a+ac9z2rffv2ZhoBSCD0eDQbAXcJIQ7rtIgCEvb+++83NakPEnh0HbuYhbdJk83JygYCHBCxZpaDJzJlzQ5jmH88wD8+3gbCIM7srUalQ1IcIOD53sufdEMOxzmIFLACObRv374SaeZV9Jpf3UNCiF9HqxEw1q+jhgl24403yvXr15smv5G04+Mu43mCeUR4T1qyxTTewYOALcAQr3Sh7HaF9u+2I+WqHdbCjSNKANkg3U4rp7T/o87j5NEM88M9Y2NjzUwrvEoIAT+5qCovqyh/1B02bJhpAhwY7MhT7xTG5HZYq0h6TUo2jXfwIJz3M6iPtWPmljkBR0E4f1pVsNMAMCu30MPp7Xy5aawlhltcXJyZRsDoaEILvFYIsUPFAPj6669Nm18I8WMADu8I78b9Zpoa649ERJzq1Tv8o0ehISfF2MRNpvJZcYGHpEIcnWQO3wEldPCs1dLkIDKJbIIqeq5Y3ZbRsgXQtFjHDBHpqaeekvn5+cXnA+n/tbsOMbCPR7b8IbhrdoyX2RfNcRiFsGB/EXMEsB6l6sZ7anebKOEXYlVBBsyKXw/i3QCTZBgSNJmdYhyotCr6zq9uoRCimtuNgPsu50KGdyOJKDj337lzpynzCed1bEF7R4DDWcssnHCA+3B4lnd4R8X4QGpnYIlYlWwIBgYfX5rHi7W6TjA9sqNZs2YkfRdAT54TQjzqZiMAZxlkYsTExJii/LftT5fYplOZ2FzXvElnNS2xRQ/MfzMKzmC/HTKXecekVZfVY++U51u5GwAH5g86jWWeNIknq7UeIfcfO22GuNCeAYC62rVrk/VeMZ25TwhxuxuNgPIqMf8vvviiKdn9APDzIm+beUpYwGnKjII8AUj97BSlwu1wjxGKsQLuBPLXW1GQ/KZ+zDTmTZOMAOiIDXuOmDZUAKp78803zTICEEHnurKimCWjmxhIv5iWph6zjQxf/2rBsbReUhyA4jUrRpvP/N2lcJ3K5y1i58jzFqQdRlx7uxEJbASYZAQgsmfZ1v2mGQEXL16Uzz33nG69F0ZffuImC6BymM6EJMrAgQOVBwEW8lttR/HkMGlyOFW4+rcLDlJmJQLpN20F846HeMefj6z4jm1mKyCo2TnVXCMV6YUTN+xR1j++B5w6dUo++OCDIfWdTl15WgjxK7cYAeTV/z/+8Q9lnH9MCnh4WjGR+ZnmTjgz6WlWApAxCzcy77DyN50HoFzAW2aHn0HZxExONr29Zs5NNz0L+R9mrtjh0+HKn9u3b5e33367GUZAvBsMAKXVf1JSkjLB4+av58ngMQEORz0zytItqRICwE0Ci9vqXKM00Nh83X+mJUcCwKgI9D6+Zpw/gBUwbdk2M0SK9ow5c+bIMmXKmGEEVHC6EUBe/SPLn2pZl3JIPlW3D08EDxkAAHY6ez5HlXUkUrK+8NUA5h0P8U6klGONNnGmep77mJ8XP8aVfTAeQDTRxCTzIMQ7d+5shgGw2skogeTVP2L+VR3/kKnr5WaDWYB7SIBjkq7Yru4wmpF1Qb7x7XDmHQ/xTjDBb9d1+KxYkU9gzMINzMcm8THkC1AYzSoffvihGUbA207dBVim06GhBBG+++47ZRq3HMzx2nYJL6e8B2F6qgVRA4gecEqfuB3mreKcTkvsVsIvwOwybO5a5meTjABkEsXRoBklJydHws+NqieL6m1x4i7AY9RO3XXXXTIrSy2hRtKmfczwJjG804Wmr32I3TUjP3ufqcuZdzzGOz4ecsonkCbNTlfLkSzmGZJAeFy/+7AZNoDcsWOHvOmmm1SNgNedtgswlGoAtGvXTomwSJvJW//mMbtThGK4dswwwVN3+dY0CYefcO/i373HX3aP+Rc9J5vuHMjRAebxLfyDUg6eUNJVvsq9evVSNQCSnWQA3CWEuEAxAAD6c/q0GgwjQ7Wax+R2Cz3q+7BlrxpOdfz0OflSk1hW/rz6dwwPvNt+tDyeec6nJ5Q/MUc6xy9yTP+o890p9bDQNCPhE5ACH330UVUjwDF5Ar6mKH/U+fbbb5WYfH3KYWZujwlwnJumHstQ4hvA/H7Wg8/9nSJYuR0/G/FVW42QB46bl1UQvA40QqbxzzRWocW/246U5y7kKskfVF6yZImqAdDPCbsApYUQeygGAM5Bjh8/TiYkGPs/P3BSDBVmdmPdrmPVsSIY7MccYehG/nFDmys1jZVIYmZWyc0vkJ/3mMxGgEmLpXoxU02BHH/llVdUjIAzQoibIm0EvEpR/qjTuHFjJf6evWonM7RJDO0GoYg2Is1v5rkLSnyTln5awqnHLX3mdnrTWHmuYX+5ZtchJV73r4x8BDU7jGG+N0lm9py41J+8pO8rVqxQMQBQN+IhgdMoBkDp0qVlaio9tOJiXr58rSUn+vGacohPVAuZQsjfx13GsxA0SQh6jf/s7i8yCq7ecZCkXAJVQq6M11lumjb/zUALLF++vIoRMDmSOwBw/sulGACvvvpqIP7UfY3jXL23KgJ6mmqo1OgFDJJitxLj96nNVexWmQF25ROuSJFeofFA05Sgl8cXGAFAn1Up8fHxKgZAjhDi1kgZAbUpyh91pk6dSqZZTm4+e297cAWXsG43mWdQEemhyzfsz4LPg7zjdiWFREKLN+5V4n//ykAgZMh0NcPMx1OvKEKRI23wPffco2IEvBkpA2AhxQC49957ZV5enj8/GvqObWAf8fnTHCZ2Oh1xdgmnT5XSdMAs5htW/q7lARgBZiHSYR6xHDVPdrYdkaAimmTDhg1VDIDBkTAAfimEKKAYAK1btyYTC1vAfIZlHuM6XfH72rdkM91fBMy2fFuaawW/jwb86T2+Lz7mMALMPA7oNDqR54VJRrGKr8bSpUtVDIDDkYAGrkdR/nD+279/P9kAmLVyBzOsSQxbXLg49X847akUhEAhttqp/eN2sWI3wgM4xtq876jKlLhSNy+/gPNgmCRPa3ebeIWuRr8UFhbK++67T8UIeMTuXYAlFAOgUqVKRmlz5X7sAL/z/WgW5CYxrBGhE8l7V24/cIUHKF9GJaxnnvEYz0SSX+14N8JhzYKlRT4NzoRpjhG6aS/dMPv0009VDIA6dhoA9wkhCikGwKBBgygyXKuzdtchFuQeE+QfdqF9TIEAACAASURBVBpL5hdURJ4ICEs7hDK/wxwhynTUR8eXm8bKA+nmIAZuTzsuy9Xry/NEUb42GziLLK/Gjx+vYgCMttMAqEtR/mXKlFFC/kPqVxYO+oRDtNBp4fo95AmFit3HL2GeURRq0cJL0diPN1oNlxlns5XmiK/ypCVbeK4ozhUYUVSY4FOnTkkckVN0qxBir50GwFRKI1966SUfrxn+BFEBihGNk5j7FNioqfFdnCwspHv+Hz55RsJpiukbmL5Ml+igy386j5MXLtKjqvyFMS+y1HkCCLXU8sgjj1ANgEt24QFcI4QABrHhhg4YMIBKF8nWqTpjuk3gT03eRuYXVESOdbf1mdvrPT43Y8wb9pluCjY9EFZrdozneaOwE9C430yy3Hr//fcN61U/Xfy0HbsAz/q9UHdjsbVx9CjdQeKjzuOYKRWY0gwhY+czkHYT3vvUgpSdDHTCytROno30u34Ys4g6Xa6qh1wZ5RsNYHlLlLfI4UBFLO3WrZtunRpAD39uhwHQLsCLwzb6hRdeuIrJjPyz72gGMyORGSMtlKjvHzRzlREWKXFvm+EJzDMe4xkqr0VTvfGLN5WYC5QLM1ZwuLUKX2wnZnJMTEwMq0tD6N8+dhgAK0I0IGjju3btSuFDrU7srNUszD0kzHFuf/LMeTK/IJd62bq9mWc8xDMqwjqa6gKbfv3uw+S541+x5eC5PIeIc2jMwg3+pNT9PTMzU5YqVSqoHg2jexGab2m5QwiRH6YRARu/bt063UQofuP7fCblqYkIRySV0nEUo5tFk1Ljvhg7ykF4IPJeqJas7IuMuko0AFTCAR944IGAOlSH3j1tqfYXQiDpgOHG3XHHHbKggHaeezQjSz75hbEJwALD3fTamnqMLLsQElWuPnv+8xxw9xxQHT9EBuTm0WSu/+TDbgLvphnnpWqtR/iT0dD3119/3bCO9dPLd1ppBPT0e5HuRr755puGCOB/MyesMM58qsIjkvWx26NS+k1b4andkkiOFb/b2XOznWKCGt885DllfJxhNFENsLp16+rWrQH08d+sNACWB3hh2Mb269fPx0uGPz/vMZkFOnEbyo0CekLSZsM84quAWOgXvx7E/OIhfnEjj9vZ5vGL6fPJN68KCgslEDntbHc0vGvvkVM+Ehr67NixY1idGkIPv2qVAYD4/wshXhy00Tt30oARcAbFoVzGrU+3Tp5n6veTZ7MvGpos/jdD2Lm179xu7/C5nWOtOQWmqDsFphw6KfEsO9vu9nclbqChmMbFxQXVpTr076dWGQCP6Xh5iYb/5je/8ZfRhr4jBazbmYDbr1+wqzr/vc2Joni+8O5HCR6o3GywzMi6YEj2Brp54IyVJZ7N8i24fIubvz4QGcNeUwwFbGuVAfAFxQB4++23w3Y42A09Jy5lhvOQQFuvsFJZl8KJolgYBxfGXqdNo77TJbKpqhSkDq7ZYQzLZJ0y+adJySRy7969u8RC2oDujbXKABhqoBFXOtClSxcSEVCJz528I9CqtBgqCxUk1DeDZrNg0imYvK4Mvdp/M0CCdh08wUcBOudZ66HzSLrvwoULV/QnQefOscoA2EpojFy4cCGJCEj+w+En3jEAekxYQuITVAJoEPuKeIdXvKrAVfuN8FiqY5r/5IyZvIyNbR1GQN2fpviTzdD366+/nmoErLTCALhFCFFg1AAAohGQjShl6RY+/1ed8G6qrxL7P2LeOhZIOgSSm/iB22qNQQc/GST8USk5ufkSaYh5jEKP0TvfjyaT+e6776YaAFiom17KGVX+uP+hhx4iE4CtzNDMFU2T77WWw5TOJ99qO4qFERsAzAM6eaDb+CSyXPZVXL41jekdht6Qa9Tyu9/9jmoApJmu/YUQn1AMgJo1a1L7L7/oyfH/0aTkQ/UFxh61bN53lAVRGEEUivb8m3cMbd9YA1kVO6yqBXC3vmfyZ0k+eqlJLJnEf/nLX6gGwCkrDIAuFAOge/fuZAJUZEAXz0yu7WnHyXzSaTTj/rPwLSl8mSahaYJ025nn1EIDj2ee47TBIYzvZxvQAfDKli1LNQByrDAAplIMgISEBJJgP5aR5Rnl53VBVbXVCPL2P3Jus6EYWtB7nb+4/8H5AymzVQv73wSnL3ZaqIFNFStWpBoAqHet2UbATooBkJaWRuKvxRv3sgEQwrKMJqEGnHFqWbGdzyGjiRe4L8GViVW0wRxSKcAGqNEmjuV1EHkNeHJKUUwIhKy9phVAAOcaNQAQxlBYWEjpu2TEKfsFgVUCJtxzATFKLR1GLWTBE0TwhKM7/+6dORZqrF9vOUxmE5WUb94yYmtwXsrOyfWRydBn1apVVXYA7jVN+wsh/mRU+eP+v/3tb4Y67H9z434zWbB7QLAjlIhakKCkUtNY5hMP8EkoBca/BVc+emmjgsHhm7/1Y6bxXAwwF6nG1WuvveYYA6AqxQCoUaOGjzcMf1ZvzVtKeievm+/7Ycwiw7zhq7B650EWOAEEjpv5gduurswpNATg2rb96b6pRfpMPZbBYFwB5iP1CKBKlSoqBsAvzdwBaEoxAJo3b05ipMLCSww1GYCRKBPb6XWSNu0j8QgqwXhwev+4fZFRaEx343R/t/1oCadalcIROSXpDtAkSqlcubKKAXCPmQZADMUAGDJkCKXf8vDJMyzYPWAAILUo9XwMRiLCmFjQlxQ4TBOmCZUHhs9dS5LZvkqA5H6uYX+el37ym4q6WKlSJRUD4BdmGgCTKAbAkiU0bPfVO3hrlzqB3VTv8x6TfXLD8Cdn/mMl5yZed0tbyzfsL09knjc8H/0r9J++gg0APwMgN7/Anzy6v7/44osqBsBdZhoAyykGADUEcPLSrcxAfgzkFuFhtJ0qq40fxyUxj3iAR4zyFN+vbhiqYgOcz8ll59yiuYkEZdRSoUIFxxgAwBY21BgkAcrJySH1PWZyMgt3Dwh3pBWlFo47Vhf0rCyZhoF4AOA1Kom5MKfHLNzAMrxOjKzQeCBVxMmnnnrKkM4tpqNNwwEoRcEAuPPOO8kdZ3zp6BdMlZsNJiNkHWWUSBauHjCQAylnu6592GmsLKRC2Ekpc/MKZJXmQz3Pp1VaDCXrwUceeUTFALjOrCMAeBMabshf//pXcsc/6jzO84xj10SP1HtUthmnJPMRUaTGjd8b/ca5b4xnr9pJluGoGJ+40fNy/N9tR5JpeN999xnWu0W6GqB9ppV/UAwAeDBSC1Io+piQP6NT4KgIlxaxc5g/eAXMPGAxD7z6zRAlhEDsAuAZXpbh//lhLFUNyltvvZVqAJiaDfA1igHw4Ycfkjtern5fTzONFybMkZNnSfyBbckXOUskzw+LlZ8X5qCePsbOWk2ap75K4xZt8jSv1ulJi3QChH7p0qWpBsB+05b/Qoj/UgyAZs2a+XjA0Oe5C7meZhg9k9Lt92BVQC3b96czf7DyYx6wiQde+GqAPHue5syNOY4Y+JeaeBeuu+XguSRRd/bsWaryR70tZhoATSgGQI8ePUgdP3A8kye3TZM7UoZE89g5JN5ApaFz1jB/RDl/RIov+b2Bjxv7TF1Onq+o6OXEbl3HJpFod+jQIRUDAGH7ppV2FANgxIgRpI5v2HOEBXyUC3iECFELwINYUAcW1EwXposVPABkv1Nns6lTVmZkXZDP1O/nyXk7aOYqEt22bNmiYgDMN037CyF6UgyASZMmkTq+cP0eTzKKFRPXqc/cknqMxBtA1CpXj/1DnDqu3K7oNUC6jaetZH0T3atpuycmbfGRwNDn/PnzVQyACWYaAEMoBgA6QCmMAhi9QgQKAiuBPCI05ua9R9k4jPLdITYinDn/n67XVx45RXPchR5ISz8ty37R23PzFwtaSomLi1MxAPqYaQDAmjDcmBUrVlD6zQhSUS7gP+02kcQXqMToYs5UDqy0vTEuyPSnUhr2me45A2B9ymESybp162ZY5/rp6dZmGgBz/R6su1Fbt24ldXzIbHbyimaBquJQBOfBaKYN980bitSt44zjN2T7o5Y1uw55bv4isy2lNGnSRLeuDaCfPzfTALA1ERAUhFsnCLc7vABfvHEvZT5odf7VggGimMfC8xjTyDoaqRjwmMTvd4z3jHxHTgVqJsAPPvhAxQCoZqYBsDWAhRG2cRkZGSRBj7AJnsDWTeBI05Z6jng88xzzRZQfD0WaN/n94eUOcAGQ7Y9aZqzY4Zl5jHwn1PLSSy+F1bEh9HI5Mw2AAyFeFLSRubk0Jvk+boFnGMRrAgeZsaj5RTg6JLxw9ho/cX8jwxNx89dT9Zq8cDFPlm80wBMyXgUGGLl0KHq3qM6DZhoA6UYbcs0115AZhHHeIzOp7RCmn/WghYaCmX6axCmi7Rgjfkf0zj+zxhYrW+D8U4tXFnnIakstt9xyi4oBcLOZBsAJowbA9ddfT+23/KrvDE9Yh2ZNRjc958dx9FhiRA+4qa/cVlak0cwDs1buIMv49bsPe2Iudx+/hESjkydPqij/M2Yqfzwrw6gBcOONN5I6jkoN+kzzBHNEs3AI1rfpy7eT+ALHBs97ZNswGO34OhsUTuKBj7uMJ81lVMJ8rt46Lurl/NjETSQarVmzRsUA2GS2AZBp1AC4+eabSR1HpfoxbAA4aaKb2ZYdB46T+AKZA81sBz+LlSnzgDoPbE+jzWcIgcGzVkf9nF62dT9J3k2YMEHFAJhutgGQZdQAQB5jaqkXMzXqGcOLwqds3d5aZjAKXyRt2sc8wREAzAMO44H2IxdSprNW5/jpcxIyIZplIRLbUYoiCFCM2QbAeaMGwO23307pt1bny15sAETjpHi73SgyTzA4lPpqLRp5ivsUWb54tkE/eTb7Inle1+01JWoNgKfq9pH5BYUk2tSvX19lB+Brsw2Ai0YNgDvvvJPUcVSq+1P0MoWXBdY3g2aTeYIjQyIr6L3Mt9z30Lw3fjHtnBvCYELS5qg1AKq1pmXDBV1ee+01FQPg32YbAPlGDYC7776bLOy/6MnpXqNR6PRVyCn+ZpuRUSsoonGsuU+hlWY00eejzuPIsv5YRlbUzusGvaeR6fLQQw+pGABPmG0AFBg1AO655x5y5znfe3QKD2oEwMW8/Kg/K4wmhcB9ic75G2pc9x87TZb377YfHZVGADXkGQB6wNExqnP97v+F2QbAJb+H62rYXXfdRWYI3gGITgGyYc8REk/sOngiKgVEKIHKv0XnHHDiuAKds+LXg2TVViMC/lVpMVRWbDww5BzsN42W+RUCIVpzv0xasoUk73bs2KFLxwbRyafNVv54Xk6QlwVt6E033UTqPCp5MWWkEwWD2W06dTabxBMJ63aHFD5mt5Ofx8o3GngATmhvfz9aNu43U/aYsESOW7RJLtmcKjfvOyoPpGfKLILzXk5uvjyddUFixQ+DPnHDXu0cf2ryNtLcRqVNe49G5fzeSFzwTJ06Nahe1aGHV1phABjGAShdujSZIZoNnB2VDBENQoXaB2B/U8vQOZwemkp3rucdY6bGd3Gy46hECWWM+HxqFjrqPKXWKyy8JF/8elDUyfyz53NIJOnSpYuKATDCCgPgmA7Lo0SjqcmAWg+dF3XM4HVBjBSg1OIU3HDkQn+r7SjZuN8MCYjP2FmrJTyg567eJZdvS5Ordxy86m/F9jQ5b02Kdg/u7TQ6USIXQqWmsczfDotnd+P8RAgesOZnrtgh009nUaeXI+p93X9mVM0JHJtQS61atUroUgP6t6UVBkCagQZcafzZs2dJNOgwamFUMYMbhYvZbUYYH7XUtjkHAHJ4/7vtSPndsPnatunaXYc0AUvNYhio31gdrNx+QOLs9L8/TpD//LIP8zwbBWF5AMA52NJHZkxk1YuWEm27fECzpZZy5cpd0aEEvfumFQbALkJDZHp6OokGXccmhZ0IZisofp61W6Uxk5eReAGVXv1miKX8AOX7WfdJ2op+9c6D8twFWhprcgellNkX8+Sc1bs0/xc2BqzlRTfOdewawVhE2Fw0FuyWuXFcgrUZmUsp5dKlS/K2225TMQD+YoUBgOQChhuVlpZGoYGMmcxpX4MxlluvU8FCsMrBitzsftdoE6c5RiVv2a8pXxKjWlQp89wFGTd/nXzFYsPHbJry88znU5yND5q5Sp7Psd8otYi9Az72yKnoyvVBDXlOTU01rGf9dDPC9W+wwgBY5fcS3Q3ctWtXwMEOd3HAjJWmC3wWTuYLJyM0Xbxxb7hhD/j77sMnTeOFmh3GaKv8fUdOBXyX0y7CiWvy0q3yjVbDTaOBkTHjeyM3Z56u11cCOAs7Q14oWPlaYehHiodTDp0kDdv06dN169cAOnmPFcofz0wK8LKwDd20iQYRGTd/PQu8KDsPpWYNW7olVYkXkHIUWccOnThDmpBOqJSbV6CtAsvV76tEi0gJQ36vMUMCx1H7jmY4gfVsbUO08Amchak5ADp06BBWr4bQxVOsMgDmhXhp0AYnJSWRGAherdHCDNyP/wm/DCIGwMSkLYZ54YWvBmge94gvNtNxj8TMJlY6fPIM58mIMsPYXz4gbh/b/YXRxLQ6+R9d9qeFm7//RwEa+Z133gmqT3Xo4LZWGQCwLAw3bPz48TqH/+rbos0hxM3MbEbbsZ1JFWr9p6/QLRgQojc2cVNUb5tCUI6Yt46hkaPMEEDY2Oa9R68WhB76D7tcZsgaJzzjhzGLyCP35z//2bCe9dPNNawyAAb5vUR3A3v37k0iBM5PnDCQ3AZjW5fB6IUzbGppNyIhJC+U/aK3RJZBrwlPYA4AvjUYzfm6ObxrBx2RJjtavfv1zvvT5y5EDS/Db4dSsrOzVXMA/MEqA6A9xQBo1aoVhQ4SkLF2TDx+hz1CstaPE0h8gEpf9poakBewq9BmeIJMPea9s1IfMXFOXKX50ID0Yd62h7dV6QwMiLMESF4fD0TLJ463VGnplPo7DhwnDUtycrLuxXUAfZwlhChllQFQL8ALwza2du3aJEIAGhKAF04ZUG6HmjAFcAm1YHXkT//nGvbXUPjcjnxGpUfxekdOnpXIO+5PI/6uxq920e+DTmOjPryvOL8G+x+GvF10t/I9WJhQIZh79OgRVqeG0MPLrFL+eO5bIV4ctNGvv/56sPEOe/3lZoOjgiGsZDa3PBtQvtQChz70E7CnAEKh4mtT3++Gelg9MbywO5S+b84CaRJJdbj8jwLYzfLRxs2fKg6A7733XlBdqkP/9rPSACivowElGl+2bFkyf//nh7FRwRBuZmaz2k5FAczLL5BP1e0tm8fOkQAK4RKcAtv3p2tGklljxs+xzqB4vtEALRtf8NE0/xeEpR08kanBT+OMeuCMlbLr2MUSEN11e02ROKb7sNNY+c73o+W77Udr3z/uMl77Db8j5wDmIXxykL53zMKNGnLlml2H5N4jpySifFSCF/CMaOC5buNpkW8Y8QcffLCEDjWgdz+30gD4k4GGXOnE7373OzIntxw8NyoYIhqYWrUPwHWgFKz2IRi46KPA/LUpPGdcEB2wYN1ufQOqcBfS/SIfPfKqIBGXHfDSeAfVAS5aHL+R/ItSMjIyZKlSpa7oToK+/YeVBsDthAbJMmXKSGpGQGz3qioerm/dKsYIbamwmJSJZFed7JxcCUTBZVv3y9mrdmqCD6sihOjhD4IQwgBARkAzxG6GHYUTaTmD54PND2SEtKJg9b1hzxGJELRIIkdSjf2dB45Hhbyn7lTOmzdPRfnnCCGutdIAwLMvUIyAlBSaRTSDwYCiYkJAEC7ZvM8KmWfLMwHFCkChCUmbNXChjzqPkxUbDzQ8NgB5ebPNSC1kESuz46fPWdJ+tJedAp1pBCC3Q5bJHv943rC5ayUQL4MZHXZen5q8jcTXOEqws51WvAt+a9SiiAC40mrlj+dvpxgAc+bQ0sBu3HPE9QxhBZO58ZmY3G4pUKDLt6bJ3lOWyU+6jJdQ3FbRHFuzMCwu5uWbSh4YLNGEq24V/e1+rplb/8hYCdTACgRj1Mp+I00xpSzauNeyeWZlf/2f3XTALErXtTpVq1ZV2QHobYcBMJ1iAFDBgBgLwJmrGH+G1/t9S+ox8sSwo+LRjCyJbIX1YqZK4Hjr7ZdZ973cNFZbxQENzazSaug82/thFj2i8Tmfdpto1tBqx0pWp8imjgEAqigFx4TUdzqlHvX4A/T69a9/rWIAfGSHAdCTYgA0atSIwg9anfKN/hcC5pQB5nbQjJI9h53nyIct+JEJ6zUHKaeMKzAP4M1vRoFRw8mDaPxqBT+s2nFAeVgRX46QWtX2wVkPx1hA0VR9VvH61KRfYxZuML0txdtm9f/wwaCUw4cPqyh/1P2zHQbAlxQD4LXXXqPQRKtTs2O865nCaqZzw/OdkonvwsU8iZXGZz0mWSL8zBgLHDnEzV9HnjP+FXGMYUab+BlqhoQKEqZvPHHWD77VOxbgo1pdJ8hek5LlrJU7NMPyROZ5CZA1/4LnwgEPPleIvCrfsL/udwRqC3Wu4zgj0PPccg07h9QdvMmTJ6sYAEAALG2HAfAKxQB4+OGH/fnN0HdgvLuFAbidwYUkjnMiWXYdPCE7xy+SiL92yzgh1lq1ZGRd4F0AB4QFJiiG/Z3PyZXvtR8TlneBntqwz3Qt+gR1KAWwxIhlp/qQZJ6jgRv1mLAkbP+cPHdhnFHLN998o2IAJNih/PGOBykGwHXXXScLCmhnmxCCTh50bltwpe9PG4TM2V2w0kncsEcCa92/LW76/tOkZGWycVigPh61ii9e/HoQGRoWg48smo37zQjJw1DWyItx4HimMr/4HjB41uqQ7wxELxw5UcGAwiX9CvQ+J10DsBK1PP300yoGQBu7DIBrhBB5FCMgNTWVRJuZHApoeBI6aVL42lJ825HEDDorYRsOKYHtjoXGmWqdnpM1tLSOoxJlzORkDWkN26p1f5qioatRzuTnrN6ls+eBbwNWAXU15xs//qQbEd3HLwk8MDqvDpixMqQMgDPg6p00x7tQTcA8MhphUKNNXKhHhvwNDrhu5jNqpBMyAGKRTNGrRXUq2GUA4D17KA1NSEgIOfjBfkRWJTczBbc9RtuCDja+Zl6HgxQ8+e3Mjvf296M1YwNohViphSsFhYVa9sJpy7Zp56160vniTBY46Srl8x6TeR5F6CgAIZnUgnEPheCHuHMg/llViifiCifPkLmTWpAbIdzznfo7EgDl5NJCeRcsWKCi/HOFEDfZaQDMoxgAffv2JfEF4qM5KyB99eGECQMlZ2UBwh6Adf7VYphtAgQTfvzizbqUfqi+w2hZvHGvrB8zLWTbgcmuw74I+iqgEjqBF7zWBuwKweijFuwohaIZDEmrCnYAjEZhtR+5kNwcZPkM1Vcn/4ZjRmpp06aNigGwwk7lj3ch45DhBn/55ZdU+jgG4crJDOjktqmgY4ViGqy4IQBfb2mf4vfROXHD3lBNI/2G8CnEivveUfwTOP/UcuZ8TsiVZPF38f/mGN1InkMtm/cdDcoLvvGhOtzpaRMlrwT8BigF/fD1yY2fgK2nlgoVKhjWp346uKvdBsBXfi/X3fDnn3+eSh/ZZMAsVzOHGxnazDYD5Mbssm1/uoxUtkg4ZFlVYNQgj0Cg+Gz4NFDzjKO9DfqE3mUwc8z5Wf8zILAzRS3NBoaPgLIquga7am+1HWVY7sJni1LcftRLxXhAnpwbb7xRtx4NoHvfsNsAqBygEWE7cOedd1L4QqvTfzonBXKzQDVzBwArBXi1B1KQdtFIRajrnQRTkgNv2VMFLN6LdttFI37P/wwAKigOYvNxzBSOjnB2taLEEiIA0FYqEI6bYYDh2EuF8l62bFlY3RlC314SQtxltwFwX4gGhezM0aM0ZxjKVlS4icO/m7PFqYeOSExjRsF2vx6nOT1tUrkHoCp2FOCKF2+nCpxsWvrpEs8r/nz+37x5AQVO3bHRG/2E+WD2LgCyV1INbGpb4hM3upY3VRwff/jhh5A6M4yu3Wq38ve9LyNMwwJ2ihoJABhZFkzmCSa7aVmpidoRADAEvh0y1zE80HPiUjv0v5ZmONBYqUQEVGkx1DF0DNS3aLpWs8MYMp8YAUD7T+dxEgiXZhQkYKOCZb3w1QByE34cl+RavlTB/69SpUpAXalTv/b3KWS7P5N1NvCqzvXs2ZPEIPkFhbq2w6JJeERTX7CaoJaUgyccl9oWTod6Qv6offbVA4pfID7oq4AQ+N2w+QGfGeg9fE3N6FbJDGc0lBVRIhmKaJsAzXq2QT8yf8AQoZZwUTBO5kXIKErJy8uTt91221U60qBerWm34ve9b4DBhmqd/PTTTyl00uoYjUd1MsN4sW0FBbRQKHhRO5Fes1ftJPOy3or7jwXesv+g01i9jyhxH4cDqil1I7wIaFtKQZIqI+/x3YvdneQt+w2/EvHrXccuJr3T9258th46z/C7fRXsBu3yb7fKdzg4U8Nzk5KSVJQ/6v7Wp5Dt/qxPMQD++c9/+sbb8GcLhyoCFebxUt2z53MMjzkqIK7YiXQC5gDysVtZEA0QqO/YUTmdRcNbR6bBQM/ka+YbBmMWbiSxBzzKVcYDUSqbdYAPIc4fZ++Vmw1Wep+vrUjmQynwk3Ar1ouK0dOqVSsVA2C/3Urf/32AHjTc+FtuuUVeIppLVK9UH3Pyp/kCzghNj5w6S5ENEuftRt5j572A+CWyc1hawGB6qUls0L5TMQEgbEMhy9lJv2h/FxXC2axdGuyaYv4sWLdb4mwfvlRAJYQzbdsRCaY71M4lQlbDp8WtvKASlfPUU08Z1qF+enekv0K2+/s9fg0x1In9+41vUUFaJm3a51omcStzm9luQOVSitNThMIwNbvAvyBQBID/eHSJX0x+LafYtscYhjc9pcDHw3+s3fIdu0uUAiRMt/TRv53Ir4H0ypSSkZEhy5QpY0h3FtO5n9qt9Iu/73ixBunqzMyZMyn0kumns1zJ3b/n3QAAIABJREFUJP4M4+XvW1OPkcZ9zMINjh/3oXPWkPoWqBKUv57z2E+6jA9UXde17+MWOJ6m0TBX1u8+rGs8it8E486N/UcaYUqBF70b+/t+x3hKd7U6EyZM0KUvQ+jY3xdXyHb/vyhE44J2rkuXLmSiVWoafEvUjQzkpTZTs5Vhu9INdIKPimrKYzhj6UF/Az2eqd+PjDGPHAZuoKnb27jzwHGSrHNjpAaOq6gFmTPdONYAqKOWzz77LKiO1KFXU+xW9oHe11tHQ0t08v3336fSTLo9XaQbmdysNuMIh1LcBAL1ZpuREhDFlALHLwAmGaE3znQpZUvqMUPvMdImvvfn4wXA21KKXiPQSbRW2ZEKl/DISf30bwvmEbX84Q9/KKEbDejTvoEUst3X6hho8JXOPvLII1SayT4uPRvzZxqvfqeGzS3fmuYqZYVzQTgH6jkPhQPhyu0HyIbtDCLuOmBLn6rbx1V0deO8ocIAuzHiCbsW1OJGcCogMBYWhk//HYgmKSkpV/QhRYcKIarZrewDve9ZSuNLly4ts7KyAtEl7LWEdbtZaEUop7mqAJ6QtDns+Aa6Ad7Lqu+OVH3kN4cXNnYxcB4MowBx2sD5bzciQb76zRClvgE9jVre+X600rsjRVM3vZe6G+Qk1Eu99KaGAGrp3r/o7TpeVDF4YmJiVAyAfCHE7YEUst3XbhVCFFKMgOTkZJLcOngi03WMoncCRft9iGmnlJRDJ3nMgxh9tRRykCMMLNp5LtL9W59CcwJ0o5MmNQQQ0UGRHifK+6lhuJCBL7/8sooBsNxuRR/qfXBGMNwZWECUgi3TCo0HupJhKEwWTXWo+bIPnzzD4x3EAHiuYX/yNiSyyEUTfzmxL0s20/xeek1Kdt3YUHc73JgFEKBFZ4jAZufOnZPXX3+9YZ3pp2fbhlLIdv821q9hujv18ccfU/S/VuezHpNcNzmcKJzsblO38bTtaiDe2d1WN71vHxFfAVEZbuqnG9tK9XsZPnet68aGivTpxhDA2t0mkvXX5MmTdevJILq1nN1KPtT7vgnSyJCd/Pvf/04mYI8JzkWGc6OQsqvN2NakFMCV2tVGN76Hmpr4eCYNb96NNIpUm8ct2kRheQnnzki1mfLeio0HkvqJSp1Guy8EENgk1FKrVq2QujGMPkUW3jKhFLLdv1UK0+CAnQUCUnZ2NomGsKopTMp1fg5PigQtkN6UWpBXPRJtdsM7sV1MLUjf6oY+urWN1KyNbnN8VckC+EXPya7jQRxLUkphYaG89957A+pEnXp0lN0KPtz77hRCXNLZ+Ks6vmoVLXEEtjzdKhC83G5gOFALQm68TLtQfW/UdzqVrPKjzuOYrkH8K0LRXO9vVE/xYGmg9b7X7vuaDZxF5kEk1bK7vSrvA4w2tUDnUXSlX52Ipf8NZQik+TVQdwf79+9PoiNiL+H8pDKIXNf+3YBaXSeQxhuVXm/pLiFhJ38hjSq1cCSAtfMAADfU4iZnZ2peivyCQonMlnbOF9V3UcMdwQffffedbv0YQKcWCCHuDqWII/XblACNDdvR2rVrU+eGhDJRHUiub63wK07fmh3GkMcb8fTFn8f//2/8IEABIUwpbnQ2c9O4V201gjIsWh037c5Qc2G4Mb8LwpKp5bHHHgurF0Po0mWRUvDh3ts6RKODdvjxxx+n0lFXshQ3CQovtBUwudTC2etCG2spB0+QSMsZNkPTVXVeIlwMTqyU4qZ8ANOXb6d0USJBmCqN7ayvstt26NAhWapUqaD6UIcObRVOEUfq99d0NL5Ex6+77jp58SItexQ7AloruKyYVNjGp5aPu4x3laCwgn6hnkkFYUlLP810tdAHAGNGDdMcMnuNa8Zm+bY00tR2GwYAUD2ppVevXiV0oEG9+VikFHy49/7KYEeuEGL9+vUkeh5IZ0TAUArBib+93GwwaaxRibEfQht81KxkBYWFshxHWFiqaBM37CXxPXJEOHEeB2oTdQcK8OCBnufUa9T0zmCAChUqXNF7BH15WAhRKpwijuTvRwmdkoMH05QCEAFfZM9wV00ehJxRS/2Yaa7qq90CTMUL++12o5i2Fu4CxM5aTWL78zm5EkcIdvMS5X1HTp0l9RGGK+V9kahTudlgMurmyZMn5TXXXKNiACDzrqPLbIoBUKdOHRLjoFKD3qwUIjERqO8sV78veay/7j/TNYKCSh+VelDi1PJV3xlMWwsNgCYD6CFycJxV4Qu76p7Nph3ldh272BX9Ax2pSKaYl7GxsSrKH3VfcrT2v4xO1IFiAPzf//0fVW5JhGPYxeD8ntBb0HrogzS52LmhFDemR9VDE7PuAVBSIZG4COEyqx38nJLz5DUF3xe3jA2OkijFTY6Om/YepXRRq/Pqq6+qGACZQohrnW4AvEkxAIAIiOQIlOK2PPEsHGPIW2huTI9q93gD2pdSOBSwpNI2e+yQz4JS4NxpdlvMfh4wWajFLTt7VVoMJRvYZ86ckXB4p+jHojqOQ/8LZIz8ltrBxYsXk/gHySewqjSbofl51tEUwB+U0nroPB7nMNvUm4krFDcoGbfPySWbUylsL49mZDme71/5Zgipb6gEoCQ3jC3yz1DLqFGjVJQ/6r4dSOE68Ro8FQ13tnPnzlTayhrfxbmCgdzA5Ha0kRoT3WY4564PNz7z1qSQ5pHbcOfD0cGJv6uEj73x7XBHyzgVfI8POo11dN98vLQl9RhpbqHSm2++aVgn+unRi0KIW52o7AO1iYQIWL16dTJx3XSG5GMmL39euJhHGut2I9gACMc32MqnFDesMsP13em/f9hpLGVotDpOd5RTQfis0cb5Czj4cBDda+T58+flzTffrGIAwLneNaW5n+Wiu9O//OUvyZNj/GJ3xZE6XVBZ3b7snFzSWLcfudAVKwWr6Rfq+T+MWUSiLRy4nqrbh+kb5oglFO3D/YZwviyipzxAdsI9P5K/qxgA1VqPcHTfQFeVbJvx8fG69WAQ3flf12h/IcQLQToRlghpaTQkqe1pxx3PQJGcnE57N1UIdhzlvpzhdtO+QZ9pJAMAldyWkc1u2prxPqofQG5+gSzfyLlpm99rT8/xUb2183cAoGOopVq1amF1XwidmSeEuMtNBsDNQoj8EB0KSoxx48aRaAynsmfq92MjwMLVixnCz/eMM+dzSOOM1a3vGfwZ2EnzrbZ0LID//sjJtazmq58mJZN4H5WAJWB1+6jPVzEAnO7DhfZRS2Zmprz++uuD6jwdenKem5S/r62bdHSsBFEaN25MpbOsxcLLscKhuFChAoawARBY6fvTVyUc65tBs13DQ/59dtN3FT+AqcnbHDs+77YfTZbdTvcBQD4Gahk6dGgJPWdQN9b2KVU3fQ4y2EmNSOXKlaPSWSJEw02CwMttzSY6AbIPQHgDAHxFpW+n0XzEYvW8hB8A1QA+eea8Y0Oe3/mebgAggsBqulOfjxDzwyfPkPVS5cqVVQwA7KTf4ybF72srnBYMdxxbJdTMgPPXpjiWiajMF631qGGAbTkKQBePUzHZ+01zDya7m+cGNWsjtJBTdzrfVjAAUNep41m720Sy8j9x4oQq9n+CT6G67fMvFAMAdVavpiXN4DAmfatDJ0w0KmRoKwYC0iUoqQ5Loxds0PV8J/CQm9vQPHYOWamMX7zJkWMEnAJqqdXVub4nk5dupXZL9uvXz/AiuJjerOM2xe9rb2khxJlindFFjJiYGDLBEavpZsHglbZT42k5F4A+Iw/w2JQyY8UOnj82ONKWb9hfUnfBACfsxHDNio0HUlhOq4PIFSfKPuTWoDoso2PPP/+8Lp0XRE8WCCF+6VOobvxcEKRjIYny/vvvkxmJV4j6FEQkJxuEF7Ug3W0k2+6Wd89etZNEYoSouaWPbm9n8pb9pDFCJSdmQC37RW8yUI5Tc3w0VcjgeOjQIVm6dOmQui6MfpzvRqXv3+aOYToYkDgPPvggeWJMWrKFBZgNKxgV4auSDrhxP05Zq4f2YxZuIM0h5BHQ83y+R93Q7jBqIWmMUAkGnhPH4DwR4KtzvDPDexM37CWPUZcuXQLqNwM68UN/ZerG728Y6OxVxEpPTycRft/RDEdODCdO1ki1Cduf1OLUrcJI0TLYe+HMRylp6ad5/thkQL/cNJacFRNQ2gj3DDb+kbp+LCOLwnayz9TljuvLi18PkgBfopa//e1vV+k0g7rwvBDiFjcqff82I3yBRIRJkyaR6I6z5UpNYx3HTJGakE58LwQftdT9aQqPrQ4FhXA+SsH5shN5JlrbhARM1NJy8FzHjdWew6dI3Ymbv85xfekxYQmpL6i0Zs0akt7z05cj/RWpm7/v8+uUbqI0atSITHy35JaOVqEWrl9VW40gj+3HXcY7TlCE628kfkdyLErByjIS7fXqO1WyAzoxN8D63YcpbCdnOtD5NOXQSVJfUKl+/fq6dV0Q/VjZzUrfv+3xQToYkkCPP/44mfijEtazENOxSoyU0FWBDHVyvHCk6BnovdQwM4RnBnoeX1M/8w9Ew1e/GUI+Bii8dEk6LUXwgnW7SXJ71Y4DjuK7//xAz9qYm5srf/GLX4TUb2F04lEhRBl/Jerm7/XCdDYgocqUKSPPnKGhL23bn+4oZgo08b18DTG/1OI0gefUcfyq7wwqiSWQ6pzar2hs14rttJBNDPDgWasdNVZjEzeR+G7vkVOO6seEpM2kfqDSlClTAuo0A3qwh5sVfvG2P2qg41cRbs4cGlgGVjFOzpoVjULMSJ++7DWVPLleasL+HXpoXbfXFDKNOamWNav9YOPWeug88lgBGthJmABw5qMUxNoHo4/d1xGlRIVqRt+rV69+lR4j6L9/FFeibv4fgEAZBCLIli1bUnhJqwMBaDfj8Pv0CU6V2FpMTqZzeDojqx+1VGg8kGls4xHasw36yWxi+BzGuHG/mY4ZL0B1Uwqct50yt4ElQy2nTp1Szfy33c3KPljbZ1IMgOeee446DjLWYVtjrLR+VlpUBzU+n/6ZhuH4SSXj3MvNBjtGoYTrZ7T8DgRGalm6xTngTfVi6Lt7TjneW73jIHUoZJ8+fVRX/y2CKVE3X29OMQCQGCgnh5Y3fu2uQyzEbFzFGBHE1BC1cxdyeUx1junb7UaRhRjDaes3tIzwfah7v+g5mTxecAZ0ypipZAT8tNvEiM9vGCGgJ7U89thjKgZAoRDit25W9MHaXo5iAKBOUlISaSwu5uVL4DiHmnT8m/2CDjSPmbyMNKbHM8/xeOo0AN5qSzcAanwXx3TWSWezZAhgdNNP00B0MJmGzlnjiDEDeA61OAHGHXSklrVr16oof9RdFEyBuv36tUKIbIoR0KFDB+p4SCdnmDJLcLjxOXHz15PGlFEe9Rts77an52av1nqEI5SJG3lbpc1DZtOVT+a5C9IpzpvZF/NI8zvSaID//LKPPJF5ntR2VKpTp46qAfBftyv6UO1fTDEAKleuTB4QrDRVJiTX1a9wjNAKoB+Usj7lMI+nzpXp+x3jKSTW6vyrBWfUNMLPZt0LuhcW0refkVvArLaoPCf1WAaJ9yYmRTaPCzKNUsuFCxfkHXfcoWIA5Agh7gilQN3+2/cUA+CWW26R+fn5pHFxknOMyoSKtrrULGgL1+9xhIBzw3ioAJlUZifAiPHZks37SLIOlfYdOSWf/MIao90Iz1NxDSAXjLzH7HvX7DpEpv2wYcNUlD/qjnO7gg/X/koUAwB1gKtMKYjlZFCTyAuE4hMVQE2UEukVQvF+OPn/T7qMp5BYq1Px60ERFcROpqvVbUOaX5XihPDnKclbSV2IJBhQ9dZx5FTG6OwzzzyjagC8Hk6Buv33m4UQeRQjoEePHiSGQiWEQ1k9afn5xoyMwydpCI9OQz1z8rir4AAwiJYxfjaTD7CCP3A8kyzvnLDr2X86LRMlUgmbSUsjzxq9gJY+GwO1c+dOWapUKRUDANC/8JOL+rKGYgAAWYlaek9hPwAjE8GOe6k5w7uNT4qYgLCDLma+4/Me9LAypziTmUkPNz0rZnIyVdxpIWw12kQ2ioMKBoROv/DVANvneLl6fSWyYFJL48aNVZQ/6raPes1f1MHuFAPgrrvukoWFhaTxcVqSCTcJIivaislGLU5Mf2oFjcx4JjJiUgsfm0VuBwBjr+Whz6PnoZ+8dKvtStSfZ1WMT0Sv+D/Lju9thtPQCzG/kPjnnnvuUTEACoQQ93vFAKhOMQBQZ9u2bSR5BjwAKB07GInfEV5wIvsZtSCHANM4PI1BI6pQy8svYBrrjLSwkhdnraRFymhKKb9AYp5Z2b5Qz1ZJ992wz3Tb270l9RhVJMn4+HgV5Y+6s7yi/NHPu4QQQDsyTLTevXuTBwkWaSiG5d/0KRUz6KTinV6zwxgeR53KqceEJaT5guQyZowzP0NtTqlAOWPgR8xbF7FxBAAbFU3vhzGLbG23Kp1NcP6r6iUDAH1FsgPDBkC1atVIAg2VALDBAklNIJlFv2YDZ5HHsUrzoTyOOg2AQTNXkejMYEvOmCeYb+tS6GFp8LOJZFKnU2ezSfxnN6Lh7FU7Se1EpU2bNhnWY8V0H5z/rvGaATCwGBF0EfH2228n4wFgi8csBcbPUROQPSYsJU24/IJCDunUqfzBo/GJG0l03rDnCM8VA3S2Uh581XcGaQx9lSKJrEcN9YVCtpKm/s9+uWmszM2n+1p89tlnunRXCH0HbBzPlfdDECQkQVetoq1qkEUuEt6l/szG3/9nOIxZSAu3OXLyrG2CIRrGioq2CCCaaOh/NPQBIYFUVD0YARlnsyMGD5y4YY/PDjH0aSfaJ3WXDB3KzMyUN998c0h9FUbPwfnvd57T/kKIXwshLoUhTkDCduzY0RAz+d/cuN8MFmwOWNkkbtjrPyy6v2M7NBqEul19QPQLpUxfvp3p7IB54uMTauZM39jbfabuazfV0AdGiO8ZVn4C9x/Jxajlp59+CqijDOi1mV5U/r4+k/wAKlasSB0vbUvUSobiZ+s7Gtiedpw0hvCKZhrrozHotP/YaRKdRyWsZzo7yABABBP1PB0McCwjKyJZUalHfTm5+bbwX+uh80jzA5UuXbokH374YVUD4A2fMvTiZ28DltIVQl933XXy/HlatibgZLMC0a9ArKJVBhFwgx05jY3dBWJGNk6gZYzOVs0T/+eqbFVDYXUclWi77ANmB7XYgUS5VSH0LyEh4YpOougxIcQhIUQZLyp+X5+rEQknQXxKuXRJylciGBvrP6G9+h0IcxgHSomEEHPrOKnkZEdGNLf2O1rbXalprMTKmFqOnDorseVtJ31UwICAy29lW1VD/4BMS9VfRfXa+RShVz9vF0LkU4jYvHlz6jyQrYbOs5SxrGTaaHj2m21Gkseufsw0HjudW9M1FVIBf9xlPNNZJ53tnJPUqA7fhPs+boGt4/pW21G+Vxv+rPXjBEvbOn9tiuE2+SocOHBAXnPNNSoGgKeQ/0IZOKsoBsATTzzhGwvDn+zgFNntTWQqoxYIFDsFrpvf1bgfHQaYd8kiO0eC8R3GJVcBHhjOdU/VtW8XoGLjgdSpLpsOmGXZXH/j2+ESUWHU0rRpUxXlj7ozQilFL/3WiWIAlC5dWp48eZI0fnCICTbB+Lr1gg+rEGop37A/j53OlSkSYFEKYqKdkE+e52LguQiMf5XSbkSCbXMIfESNsbcyckFlJwX+Z8hLQ9FbfnWiPu2vXiOmoh9RDBF10qRJ5Hlg9fkSC6/Awgt0GThjJWnczpzPsU1wRcP4UdHNkIY2GvofrX14reUwCUAsaoEvAGB67aJP+uksUlPh9GhFG7ErkU10jkVHAEdP1VlF9Q563fnP3zi4XghxgULQunXrkhgLlRBXawVz8TODK34fbaYm0xI6pRw8wWOmc/UPWu88QAu1XLn9ANPZAJ19fG3nJxXgyScwu8Qvtm2Mt+9P973W0OeEpM2WtLHftBWG2uF/s0mhf839FSB/FyKBYgD88Y9/9B8bQ98Xrt9jCXPZKQTc+q7lW9MMjZXv5iWbU3nMdCompPJFBkxKAXiLW3nLK+3GDmZhITGURkqJZE/PNuhnyzgnb9lPYUO5YN1u09sHPAX0nVqmT5+uuvo/X5QMj/W+HwVaUAwA1Nm/n8ZcSJJhd0iMV4RTuH5S025atSII1143/l7juziqjJN2e4q7kb5OaLOKFzuYw64cAdR2rtieZroBoOJ/BJoBhI6qq4rq9fPTe/y1iAJPUok6dOhQsqD7rMck0xnMCYLB6W2g4poPnrWax0vnDsC3Q+gALEjV7HQe4vbFyBpt4pQ82bOyL8qKXw+yfKynLaMd+W3ed9TUtsEhEUBw1LJ161ZZqlQpFQOgUAjxMGv9khQAGlIGxQh4//33qeMp4+ZHLle2lwXYiUzaFlyvScmmCoRoHoNxizaR5gXytz/HkRau4TNAY6sUO9Lujk2k8eJek1FbG/aZrkIqWatWLRXlj7qexv0vqfavvjKZYgDce++9GiYzZWQZFji8w54VSpLqgcuOm/rHi+p4xREA+mlsxdww+kzEs+cppLIFVHTlZoMtNXiGzV1LEc9a/gKj9Ah1P1JcU0t6erq84YYbVA2AF69WefyfPwW+pBgAqLNhAy21LJjh9ZbDLGX+UAzp1d+oAguJO7xKMyP9BtQyNUyMnWPdZQCALyYmbaHqNa0edouM8JfRe6le98gXYvRdwe6v1XWCEo1atmypqvy3CiFK+Ss8/n41BXA2QiKySnpgK8EmgjGj169TlRNDOOtTTp92m0gWdj0nLjVN6Hqdz+3qP9ABVXIEwCCv2mqEZePeY8ISEj+ezb5oWpvgUEgtWVlZ8o477iDpJj+d9snV6o7/C0QBACQYJvQzzzxDHVvJoWX6lIqZwowavoTMYma2I1qfRQVawiTiHAD2zwcz+HBkwnqyDERF4AqY0Y5Az0ACL0rB8USg5xm9hpwY1ORjaPePP/5oWCcV02PHhRA3BFJ4fO1qCowoRjhdhC9Tpow8dYrm3YlYaWyZGmUqvp8uKKkY3GwA6KP5RuJZJzDm7USI4zmkbzz10AmZHxHaTC0wyt/+frQlcvC7YfNJzcLOhJ6+h7snccNe0vtRKS8vT/72t7/VpYdC6K42V6s5/i8YBT4IQcSQgzBmzBjyIHOGOfMEUbjJiN+p2OAcnx5+nF74agA5NGzTXnPDrvTwAt8Tfkz10gjQuSpl0ca9pijc4u2lGgCISCn+LKP/I3kYnkMtQ4YMCal3dOirHCHEL4MpPL5+NQV+IYRAmkTDRP/ggw+oYywRpmKUsfh+uuA6nXWBNFbdxy/hcQqDA9BkwCwSbVEpbv56pm8Y+jp53sP4Q74MlQL/EbP72HZEAqlJZuwAUPNhoMGA/f3LX/5iWBcV019Dr1Zx/F84CqwoRkBdA4DsTAUFBSRGQ4pMs5menxfcQDh04gxpnAbMWMnjFEZBqWSK452w4DzrlvlMzQDpm5BbU4+ZngmSir4Hx0YVur/RSi3l75QpU3TpnjD66tFwCo9/v5oC34UhaNBBWb58uY+PDX8CVUuF2biufuG56+AJw+ODCoxRH5rGZb/oTcY5Z1+Y0LR1y/yGP9PxzHOk+eWr1Dx2jqmykOoECJ8GFbpPWqIWHvn0008H1TU6dRRy3HAxSIHHdRK3xOC0bt3ax8OGP3tM4PAnlclmpO66lEOGxwcVEixIDmKk3U6/VyX8jzMARocBAB7tOjaJNL98lY6cPCuRNMcsfodspZSzCum/kTKZ6muEtiYlJZXQLwS9VMWg7uPbi8ASjhKILR977DEKn2l1Vu3gFKhmTfhwz5mzehdpnNhJLbSSwg4JtbABHJq24XjaSb8jkgPHmioFsftm9YnqnHgsI4vcBpWjMNCtUqVKqgbADgb+odszcJwwPABI1HD48GES38PhpHyjAWSGM2uyeOE5yMFAKUcVBEK00xWJTo6cOkshq1bHqhCwaKe7U/vXZjjN8c7HQHAmrNB4oCnycBQRo2DP4VOk92P1D3lOLatWrTKsewLoq4/o6o9r/jsAQXUNCsI2qAUe1E6d0NHUrm7jaVuUnKgm+Cr1vz/SoU7ZCTY4Xd067+APsuPAcaoo1OqZFRUyJXkrqR3As6DQf2oyLfugr5H/+te/dOmaEDrqgBDiWlbjdArcJoTIDUHgoAP05ptv+sbR8Ce2jSgMx3WMCdCmCqFqH3biVLWB+E1ly5OzYhrj30D0d+K1z3tMNiwD/StgFV2ttTpEcPKW/f6P1f196ZZUw/IYuV1UVv/IK6OY8he66Qu66uOaPgokUgyAW2+9Vebm0hCxjp8+Z3oIjBMFQ6TbhO1magGoSKTb77T3l6vfVyK3O7X8p/M4pmmY8Eqnjbne9izfSsfABz/NXb1LmTd2EnciEMOvt5+++6Yv306dBlq96tWrB11c6tRHRxj216fC1T6b6iR4iQFLTKRhT4MDPuAVpuFJ55t8ej//+WUfcrY6DgUsuVoFRDK1pJ/OYqM3SpU/5uM734+W1Nwb4CmA6KkaiBlns0nsOXzuWkOyCLsVVJhxNHDbtm2ydOnSJfSJQT3UWE3tcW0fBf5skPBXBq5JkyYkhkOlwbNWG2I6vUqP77tace07mkEao837GK62OC+t3nGQREtUGrNwI/N7FBsA4BXVM/H1uw+TeQThhFQoXoQzFuf1UP8joZFKeeedd67oEKLuOSmEuNmnwPhTnQJ7KQPx5z//mcwHe4/QPE9DMSb/drXyBz0WrNtNGiPE9poZo+z2sanxXZxSpjP2qSjJm27nieLtR7pgZNZTKY37zTCkjH1twA4EtXzdf6budwLITWX1v3PnTjNW/63UVR4/wZ8CfSkGAOrs3UvPAMWogNYLRRXIUivwyn0Cy22fKmlg97Gxq1vBuI0virc3dtZqqh7W6qWln5ZP1e1jmF7NBs4mv9fIcSxAwlTKhx+CTV30AAAgAElEQVR+qLr6PyuEuMNfefF3dQr8i2oA9OrVi8wPvSYlG2b04hOO/w9tRHzWfRJ5fIbOWcPjUydGwvkv8xwtsRKIHzOZ+dwr87R8w/5kmGjfRO00OtHwvOs3bYWvuuHPijpxCLCLpZDwT6akpMhrrrlG1QDopK7u+AnFKXCjECKbYgRUqFDBMMP5KmzmtKiGJ7pRQQrMcmq4zva045a3z2h/InF/+5ELfSxr+BPnslVaDGU6Rvn5vz9fQoGrlIysC/J5g2BpiCKglJNnzuvmTaC4qhQTzv6hozjlb3HtbdL/sykGQJkyZeSJE7SkMxCOODfznzz8PfSKnkIfKHJKwfhUbjbY8+Oz+/BJCvm0OpQYa8oYcx3z5w2VpmXr9pY49lEpOEow8n4qJDEcW/W857Me9J1E0GHr1q1mnP33NEnX8WMCUKAexQBAnWHDhpF5nbLdpYdh+Z6fBSKQxqil69jFugREtNK77k9TqKTT6n3Vl+bUFa309Eq/MO4qBc6EehdHLzeNJb9qbOImXfN7S+ox8jtQsVq1aqpb/xeFEL8JoLf4kkkU+APVAKhatSqZOQCg4RWhEKl+1ulJRyrbQIQJjVRfzX4vVvDUgth/rAbNbhM/72fj1sm0WL2THjYKnotP1Bc6isgBatGzAFNxMES71q1bZwbq30CT9Bw/JgQFtlKMgBtuuEFmZWWReDC/oNC0ZBhOFgaRbBuylmXn0FAbvXyGjdA/9J9a+k9fwcrfQ2f/xed4zY7xSvyTm1cgX9VxRDpiHi3pF/g6XAQADNjUYzQsEd+8eeWVV1RX/wVCiIdC6C3+ySQKtKcYAKgzaRL9jOjbIXNZUFosKBdtpIdrDpyx0pPjM37xJp8MM/wJx0v2n3DHSr244jbzf2pKbh/DjV6wIezcSzlE81HBMUO4kMMOo+gOsOjDsmXLVJU/6o80Sb/xY8JQ4HGqAYD4TmqBcjJz0vGzSgpelbSlyN0QTlBEG82RojVbAdRl1sodzNMWG7Vu4DlEgOTk5lNFo1YXZ/zB+go/AeomFY4ogj0X1xFBhGMslYIoMapOKaqH1f/DYfQW/2wiBVIpA3bHHXeQkwNhq8to2EsoxuXfShoAoC/oTC1eS+GM2H2V8n7H+JDClXm0JI9GK02QBVKlhEoX/H3cAvKjw8Gxq2ALoFELFixQVf6oP9xE3caP0kGBGIoBgDoJCQlkZmw9dB4LTItXTIkb6McAKjjlbhPs2O04lkFf+axLOcS8bDEvu4mnsJukAiQF/50XvhoQkKcWKxzt1Y+ZFvCZoC12Hc4T/YagBC5duiSfeOIJVQMg7/L2/wM6dBbfYiIFKlINgC+//JJsACRt2heUGd002Z3c1uaxc8jjg4q1u030xBipZP0Dnby2W+JknndK21R3lHpOXFpi7gHBDzk7KAXn/0C4DEafKclbKY+9Uic+Pl5V+aP+IBP1Gj9KJwXKCCGQbcnwAP7mN7/RLL8rXGDgCx8DWL8liuQ+QBmjFq+EbG7bn04lkTxy8iyH/vHqv4Rifa5hf0lN1wtmPJqRVcIPRwVxcMnm1BJt9BkDb7cbpZTwJy8vTz700EOG9UcxnZMrhPi9Tp3Ft5lMAZy7kAYQXp/U8t2w+UGZ0sec/KlmKKiAAmFcoz1BEHY5VEr38UuYh9kACMgDWMWrFOxM+cs/YHRQS6j4/5Xb1SB/e/fuTdIdxXROb5N1Gj/OAAWqFRsM3QPasGFDKk/KUFapP+Pzd7oRUK31CKXYZCCCPfkF/f1OH7vEDXvI/IszU3ZmjV7eUOVdbLmfyDxP5q8D6ZlXdgGQSZXq/Y8G/KvFsKuMCV/fGvaZTm4fKp47d07+6le/0q0vguiZHEb9M6CtLbgVyYHOBxmckIN77733yoIC2rkUYqf1ZqbyMSx/Ghe4y7elKU1y+BJEI90RUgVgKmoZszB8zHY00o37pH8O/jRJLbrEt0s6fvFmKptKHHEFGjOA/uxVzGHQtm3bkPpBp07pZoFO40capMBknYNVYsCXLFlCZs62IxICMmcghuVr+gWPP61U8e3hIY+0p/7PjIbvKmFPhYWXZNVWI6KOJtEwrk7qA7z5qaicEKoHjmfKSk1ilTAqguX36By/iCy3URFJ4W699dYS+sCgHjkjhLjboK7i2y2gQE2DA3dl4OvVq0dmpGVb97MQteEMFamYVYoehDInCd5wbSn7RW955NRZMkkS1u1mvrWBb8ONoxt+H7NwI5nPUBFHpdSCHa6XmpQEFkKoooqDMNoDuU/VGX71vrVAl/EjCRS4RQhxwW9gdA8uzoCoxwAFhYXyZU5Ba7kyUUkggsmOFe+HncZa3k67BHqDPtOoMlWrV6vrhKihhV009+p73vh2uDZ/qAyHGHtqAW5AILoj8ZBKSUlJkddee61uHRFErxwTQtxM0FVcxSIKkI8BFi2ibyf9OC4pIJMGYly+RjsGgCMfFUPcJyj2Hc3Q4EKjYQyAQ0Etm/cdZX7l1b8hHliwbjeV3ZTqNR0wq0Q7Efan4vuCBr3++uuqyh/161qkx/ixRAq8F8RSCzvYX3zxBZlRt6YeK8Gk0aBknNYHIIGpFiTMcVq/jLYHqGcqArAVo1i6ngeM8ozq/W9/P1opGocybwNhCaAfa3cdojzuSp3ExMSw+kCHHtkrhLiWqKe4mkUUwHYMKRrgF7/4hczPpyfBQJiL6iTj+uF3B1RjfrEbieMEN9NaJT4bEK8AWHJz/7nt4eeJFTSavzblihK14wsiEIr3o4UiOiiOeh999FEzDAAsNrk4kALkYwCV3ACDZq4qwazFmZf/VxdcNTuMUV6JZGVflG422HYfpqVThdAembCe+ZS3/0k88FbbUUq+AEaMhkD5BJ5t0E9DGDTynOL3Dhw40Azlv0kIUdqBuo+bJIQgHwPUrl27OL/o/v/gicyoBpxxkvEyeaka7jcGFf4A5RsFTljipL4WbwsMIGrB7keN73inqjhN+X/9hjnSRttRAmFUDJ2zRunVWVlZErgvOrb3w93zMmta51KAfAxw5513yosXL5KZ7JMu40mWNQsg/QIItAL4kgpOuW+Ak7fsv4JU5pYxGJWw3td8w5/h8qm7hQbcTmPzxUx6VWk+VCIxj5UF/i1vtBp+lSwFIqhKenC095tvvgmn2PX8PtO5qo9b5qMA+Rhg8uTJZN6OBgczM4WFlc/6dshc8jj5V5y9aqdrdm4Q+38885x/8w19B82sHBN+duQUs520HzBjpSG+M3rzhKTNJfh06RY6lgDen5qaKm+44QY9Cj7UPUj3+4hPyfCncynwLnWbp3r16kb59cr9p7MuyH9+2acE89o5Ob30LlWIYN/ADZ+71hVjVi9mqq/Jhj+B+/9M/X6u6KeXeNiNfQUfwUPfinIxL19il8GfLqoYIGjnW2+9FUqx6/0txrkqj1vmT4GbhBBZFCPguuuuk6dOnSLzdqC4VX9m5u/mrZIgKM6czyGPlX/FuPnrHL8TgN0KapmavO0qocp8aB4fepGWTQbMorJiyHrFjXE4/iFltUpZunSpLFWqlF4lH+y+DCHEXf5Khr87mwIjKQYA6gwYMIDMb5wh0F7BaqYggnMhttmdKNCRnz1b4ewVaYOd2C9uk73zxUx6J27YS5aTgSqezb5YIrmais8L3oHQ7r///e/BlLqR6w2dre64dcUp8ArVAHjmmWcC8aeua4AGfvWbISxsbQy1mpKsHhXgG9y5q3c50jGwzfAEXxMNfyJnQDSnRDZTqfGz9BskyEaJkFqzCvAt/On/bvvRSoBXaFf37t2NKPlg9+5k0J/i6tX5/18jhEinGgHAiqaWPlOXX8XI/kzN3/ULGL20wupYJTa++DgDf9xp2QNX7ThQvJm6/4+dtZr50UaDVC/fRsN97Ucu1M2HoW48eeb8Vf5T2IkDZLVKSU9Pl7fffnswpW7k+uvOV3fcwkAU6E01ANq1a0fmvQPpjAlgt3BDwhKg3JlVMIaAP7W7H4Hehx0lJDOiFjeDHgWiB18z34hWoWnihj1U1rxSDzunn/odUyEFsGr58MMPjSj5YPcmBlIsfM0dFPgn1QB48MEHpUoWKz5ztV9I1f1pioQgMavgzB3QoyrC0Yy6MZOTyV1CGmUz2sDPsJ+f3UJz4HIcMyEqANgecOyt3Gyw8tHCsmXLzHD8KxBC/N0dqo5bGYwCu6lGwIoVK8iCd/ry7Sx4I7Dt2mPCEvKYBaoI9LzRCzZEFD9/54HjgZqm69oPYxYxH0aAD92ivM1q52fdJyntUvmYeUvqMblwvdqOAvD+//GPfwRb0Ru5PiCYUrHo+o1CiIeEEE8LIV4TQnwshPi82N9/hBDlhRD3s1+CvlFoRzUA6tSp4+NLw59Ay3Ij1KxZAiGSz1H1HA402IB6xg6D3f0CIhq15OUXyBe/HmR7m+2mEb/PGbsTcfPpKJVUHg9Ur0+fPkaUfLB7zwgh7tGnYgzfdYMQ4kkhxCdCiK5CiNmXlf1+IcQlg7oKOxS7LhsDw4UQtYUQfzLcEg9UAFGCDXLI67fddps8f/58IB7Tda3jqEQWvhFYfcHjfcYK8zHLsRuAWHw7larK9j9WUqwcnaEcvTAOT9frK1V2q3QJ1TA3HTt2TALSnSrz/eo1NUk3wohA7oBml1f3o4UQ24QQ+X7vMaOt/s/YWPSu/2dS+6PiMauoBB8+nL4Cw2TwwsR3Yh+ByGgWUmBxmXPqbLb8Pm6BLeGC2BKllq/7z2T+i4AB6sT5YFeb4IxrFjgXhe/fe+89f2VI/b5XCHG9Ac1XRgjxByEEQs/rCyH6XN7GnyeEOELVOybUA2zx0KIjBQNdic5b61AJ+uyzz1L48EqdjzlBUMSUEPLeq2KIXxnIAF8QX99pdKJlhgAcorDrQCmA/i1Xv2/EaG+XwuH3OG+H48teU03xBzDK9/PmzaMq/OL1avipwduEEFhN/1/RuTy22tsKIQYJIZAYaLsQ4iJVv9hQD8cEfYUQ6Idny+1CiAtUYu/YQd9OnrliBwvhCK7CoARXbE8zKksM3X/geKYEUA8MDjMVUuf4RYba4X8zjirMbAs/y3mK1sljMmjmKn92tPz7hQsXJCK3qDK+WL0DQojMYtfMenaknnNICFHFsxaAEGIMdUCbNGlCZmAkt7DzzNjJQiFSbYNiTli3mzyGeisCFQ1wwh90GmuK8gUgEbU06jvdlDZEasz4ve42OADkg3TbdpUWLVpESrG66b1wMuwihCjtRUOgEtUAuOeee2Rubi6Zl3+alMzCOIK7AFAmZev2lhOTtpDH0GjFHQeOy+7jl0gqCM9TdfvIcxdoPId6Zu9GsEJ2t0KOxPgBH+DwyTNGp47h+7du3SqvvfZaNyniSLcVi2Eg5XqqwOpJoxoBEyZMMMyYvgqHTpxxbJKZSAiGSL5zzc6DvmGx7ROpU5GND6BCLzeN1WUM/vdHOr9htyOSNOZ3s7Hg44H3O8bL3LwCy+ZaYWGhhJ8WVa57uN54LxoB7akD/sorrygxMXK5+yYFf0ZGQHaJV4cXVWKCosqALF6/+7B2XIBdgoZ9pmswqO+1HyPhRY2VE/D7qeW7YfOZ1yK848Rz/Oc53mGUOfkCAs0HZG6lynSuJwZ7agtACPEAAWxBY7DSpUvLtDS6MxnOc1ko/CwU7KZFq6HzZCHVpT6Q5HHoNeQMeKmJvl0Gu8eA3xc5/o807a3A5Th69Ki844472AAg4twUGUCIkPNUSaJaft9++y1Z7EMwV201go2ACKzMGvSZppxWlDzwNlcEbkCkhT2/37uKPtjYIxrHbJCgatWqsfJXU/6gX47X8h0AS5nEOHAGzMnJIYv0+MSNLJxtNgBq/ThB5uTmk8fMbRWHz12r8RicHpFFEEYn/uB7AM/sYAKar7PStpIHgM6JXTizSnx8PEmGU2V/lNdbKYQo5ZVtACA8naAOaFxcHJmHs3NyZYXGA1kI22QEvPP9aHn2PN1gIw90BCuu2XVQ7j92OuBxBwwh7BBMSNqsCWPmRVb6Vip9PBvOrOMXb5LHT58zbVacOHFCYjFGleFcL+AC+B2vGADoZw8qE5QtW1aJkXtxSKAtBhCS6JzIpOdxUBpkl1RGsiDAJbccPJfDBm0ySq1WuE54Prb7241IkLsOnrBkJuzcuVPef//9UWMAlClTRv7xj3+UNWrUkDhmHjlypJw1a5ZENtpdu3bJffv2SYQ6rl69WrvesWNHWb16dbONoFSD8MeuthcepjoDwnBYtYqOcgVLGDj1Tpio0dqGSk1jZVr6aUuET7Q+9HTWBdlv2v9v7zzAoyi3/3/oRZQi197+9u4FUUFB8YIiKHIVuV4QG4oaaaJUUToKUgOEKkjvYOhFOqGF3lsoAQIESEIIgVCS95+zv4S7ht3szJnZ2Znd7/s8PFl2553yecv5zlvOWYMIlhAC4r6JfU+wzxOuS/5O7Pmve/fu6o477nCUELj55ptVxYoVVaNGjdTw4cPVxo0bxdPK7JuGp0IqVKhgFoOGjrbqOm9+qXQUoH79+obqN79xBavxDfRzvdpssKmLjXjnR0YI7B7IrtA8ZcIRCNkRUaDLEtd3zhQF+/+3wulPdj3N/puWluYygu+8844qWLCgWYbQ8HkKFSqknnrqKfX++++rdu3aqalTp6oDBw74rS/hUYObbrrJ6H1v0GlDHX04z3mIgHHhnjp1KrsO6v678/ApdK5+eNN6uXGEa3+97gLxkmH69Okqf/78LoU9b948L0cF59dcR+t0HIt66od6GkzCht/62cOmHTRySkqK4nbKrttfe+01VapUKVH/rtUucNjhp59+WtWoUUOFhYWpfv36qfnz57uG7K9d85/zI289zoYNG1Tx4sWNPvM/HW3Vddx8QSI6pbWwcx7XpUsXb+Wg6fsvek5F52pi58qr3ldsO6iJvZaDFi9erFjouZd72bJlXUr+6tXQ2FXAHtzgVMg5b+FWC4s3Ww5X2w6e0NKcAnbMsWPH1IoVK9TYsWNVjx49VNOmTdXnn3+u6tSpo9566y1VuXJlxeu6qlat+rd/PB/PxzVv3lx17txZ9e/f33WOJUuWuOblU1NTA/ZMuV2YBVCePHn+1m+592EaPrfXYUMdf+ivGoB4hHnXXXepK1eu5FYWuf4WteMwBICJAoBXGpuVoqOjFc/Veasb9957r+rWrZuKj48365K2PQ+/2bFXQt7GZbWBwfXsy7xGm5EBGfK3bUOx0Y3VrVvXa9/lrU9z+3614626jgf4f0SU7vbwusCNHz/eULHXNylqXKh3lENmrTVUDu6Z9+/fr26//XZN9YADkNSsWVNxnAgj/iHcr2/XzzzMCxFgX4NsZR/A/iU4BDaSPQls2bLFyCjA1cyIgYV12FDHHzpLKgCeffZZQ4s6Fm86gLcqg6MAPERt1vwjDxdKtxfxiAEPK7IoTEwMzh0II7OcDFlpbHAte4kOnvPn9SFI9ibAayCkdo2Iyjjequt4gCoGQKlFixaJawL7pq/TaRxEgFAEcBCda+npYv7uGc+cOaOeeOIJI43mel7e18vziq1bt3YtSuJzB0vi4EUwyvYyylaWB0e1RLI/gV9++eV6fySwb/V12E/HH8ouEHcIILkAv/HGG4Zqw5y1u9GhCgTAx79MVKlp8jUY7oXGC3pM3EvrseE98MADqnbt2q4tQbwgiZ16cDATDmfqpMSCi727WWl0cC17CI5mA2c6qaqG9L3OmDHDYz+k0c61cLxV1/kAX2oE4xHqpk2bxJWNgwT9+6fR6FB1iIBaP41SCcnmrMJlZxoc6tlI+RvJy9sM7777btee4fLly6tPP/1UXJesyngq8bz61/dDUWd11Fmni5hXmkRg0Z9VDcyE67AnQQP9Uned9tPxhxchojNSYLzq0kiavnIHOlONnSkHtTl2+pwR3Nfz8l5dfiuXlrs/8vG0gRPS3HV7UGc11lmnG3++/6Gz5d5PfdXn5NQ0tSB6n8slNXujNGtaz9d1g/n3yZMnG+nX+jjeogseoJu0Q+c535iYGHF9unotXfFbbTB0FP58Bn4L4WA2ZiT27tewYUMjjcT0vBze1ClTArzwEr4s7DE07882x+eu1Gyw6UG1Yk8lqdELN6mvek+/weskR/A8ehq7DIz0c+y3QGrPiKiHwH46PsvdRHRFCq1JkyZGykvhjSr3zpTjJ3DgGrNSmzZtjDQQ0/Oy21D2ZGZW2n/8jOo+YZn65NdJ6rPuk1W3cUvU+j1HPUYJlF5z39HTih0w+dsA4fy5tw1/8+EAZmYkftHhRYSf9/C9hoR3G/BowEWT1vmYcf9OOge7IJbassw4OSHlDMhduUyQQmM/zBymUpp4LQB2BHju6Hj/+aw1u6Vob8jHLjul5eyPfCVKlFDsf8CMxMOnvaes9GqY3247Uo2YF604NLUZCXEtPNdZfxtlq87Pbc8MH/+rth9W77XXv9bpjZbD1eiFG02rr2bUebufg6c22U2xgb6qgbtRDKXPzxuAplq2bGmobizdEoO3KQ/zqmywzErstCdv3rxGGoepefleeMGOGYl3RXzTZ7qmOlS9zQhT4ibsiY3XdD2rDBauY64g4REkI4m3OveYuNxwHXm9+RDFW1B5ZCtY0oVLl9XWmBNqyvJtrhE6Fu5m7GziPs6IHSOif4WS0c/5rIuk8HgUwEiQIK7YPFyLTux/nRgPXZuV2Cd44cKFjTYOU/MbjSmRzebS5auu+VQ9dad8o4Fq0UbjIw9h/WagznoQrnrKwq7Hjl+8JbuKif7yNJTZz/ZRt4nq97nRiqegnJB4vQyPoizbEuNaTNlyyBz1brtRf/OsySNpHHvDjPTiiy8a6aMyiKhUTqMYSv835BiII1EZSet2x5reYMxugFadr3nELNNWBO/cudPosJiRRuUxLwccMSPUME8ffTdwlqjecNjftbtijVRZtXDDPtG1rapHuM7/BLVeFkZ23Fixrql66xGu3QOTlm5Vu47Eq8tXzTGiehvElavXXO6R1+w64oqOyOsm2NDX7TrBtYjSG3eeYmFX5mZ5M507d67HvkbHS+2BUDL23p51rQ5gfwNetGhRdfKksZXqeKMKdzmbSbtiTtQ9dvF7zz33/K2cpOVrVr4nn3xSnT9/Xm8/4/H43yYZG2Kt3HyI4r390sSjD5WaDoIICLJRADau0sRrTHjLrjfD56/veVHqez+PVi0Gz1Hh01epiUu2ut68dxw66XoLT75wSfNCWO5/4pNSXNMOG/YeU0s2H1C8ZZunJPtOW6U6jlrkGnXjdTUvfKN/MSz70uBRAbPShQsXFDscM9hHDfRmFEPp+9pGIHIISSMpJu7sDVtj/NVg7Hje2h3GmLbtKCkpyRWz20h5mp3XzEV/3MGZUYbf9vvTSJVVP/4+35T7MONZcA75G787Ox6WlqZxf222dX14tdlgxesK+B8LHR6Sr9pi2PXvKjQe6Nf75+2P8Ynm7frhcmK7Y0JfVT2UDL23Z81LRHulMHme+fjx49K248rnj7kz98Zt189VfhhmWqQx9vJXpUoVMxqFaefgCIJG4ke4V6qV2w95Xe0vKd/lWw+6n17X5/nr9/q1w5Q8D/IYEwJGQmx/0GEs6oOHESGecuMRBJ62MzPNnDnTSATA7P7tNBEV9GYUQ+37L6QCgPM1a9bMUPnyUFWouVt9uXGE2nbwhCFu2ZnZoQ5H5zNShmbnzZMnjxo1alT2LRr6u/foadOH3et2GS+eizyVmIIO30OH72QRsn73UVEdZSc+Tn5uf937fzuPVzwVYXbau3evKl68uBl9XUh6APQmbFgJHZMaAR4FOHLEmOMas4Z3/VWhzTwvz6HxHJtZqWnTpmY0CNPOwca/V69epjxewvmLqkabkX7pZDcfiBPfo7/uycx6hnNpHxWIO5ssqgtwbf53xrw+hqdE/OHiOD4+Xj322GNm9FPXiOgRb8YwVL8PkwoAzvfRRx+JGlB2Jq4w/wmRcMFjFskDKmXzyv7bo0cPMxqEaefggD9Dhw7Nvj1Df7lO8PyhvwzZL+OXiu+vy9jFfrsvfz0vzvt3Y5XNg7eISoepeetu9nlC/S/vZDqZIF9gm1tjPHfunCpbtqxZ/dTEUDXyuT03jwLESkUAv/VFRxtzYsPDcMHeiIwYnZwNZNy4cWbMhZnVqFTp0qXVggULct6m+P89Jxtb8e+rLr3TdqT43lZsOxj0ddUXv2D5nVfSSxNiRIS7diKY6bo8Z1kkJyebGcL8KhE9kZshDOXfvpIKAM7HceaN7vVu/8eioO1Ym/SPNG1obOnSpapQoUKmGW8j5c55P/74Y3XmjHmey+as3W1JPZB6IztyCnO/wSIAPu0+OafN0fx/FpHBwkHvc/Ai5lELNvrVH0FCQoJ66aWXzOznBoWygff17AWI6LARY/Dnn8a2WJ27cCkge2r1Vn69x/P0RspFc3zSb9++XfH2OiPlZEZeHvV544031JIl5nkw5J6XnZzwIkm9jCXHn01O1dzZux94OumCJfcneSbk8TzU740L+yKRJn9vofN2z4H8/vXvh7pW9/s7eFFsbKxZc/7ZfeVJIirtywiG+u+GdgQ89NBDirekGUnBts3qrVa/G3I+487SDo5+2A30F198oViImJ3YILPvfqs6OOmc5ZlzEABWlZG/r9NyyFxRNWZPfP6+Nzudn9/4h85ep86npol46cm0du1adeedd2YbbrP+1gx1467l+XkUIMbIGyLHZzaamg6YGRSNi1fF7jtmztD42bNn1eOPP25WY9B1Hh5xqF+/vuIRnosXLxotXo/52cUox0e3stODAND3tmxl2Vh1LfZyJ0k8omfVPQbyOhy5lYP4+PuNP7sMxowZ4484JiO0GD8c838EPjUiAG699VbD88EnEs7n6lc6kA1C67XZVeeKbYey67Whv2lpaapixYq6jLaRMuTV/OXLl1dt2rRxOX6qCj8AACAASURBVPMxOqqj5eEDsbKep5wkibeNaa0HOM7eIoPrnSQlnr8YtHWAX1x+GrFAbdpnzMmbHq7cx/hpSzNPa98C466dAHsH3GLEgDRo0EBP2Xs8dtYaaxaC+auD5v2wZiReWMlv30bKw1deXlDIizg5zDMH2TDLd7/W52ePYf4qB2/n5flb6favQycTLL9fb8+B740JDF54LEn8RhxM7Cs2HaRaD5vn8lFiVmwSrVwPHTqkypUr548+LpWIXtBu+nBkNgGOkywuEF4gxivVjaZ2IxY4spF1Gv2X0Ue/nv/HH38Ul4O3MnzwwQdVvXr1VHh4uFq3bp3hdRvXb1bwYcaqHX8LF2pVp8o+/aVp5+FTjqyXVrF10nU6CAXAtfQMx9cB9tjH0fzW7znq19X8ubUzHvL306LmdCLiWDdIQgKzvBkQLd+z1yYeujaSeJ6tZrs/HNXQvuw5VfF8thlpxIgRho0/N65q1aqpn3/+Wc2aNUuxRy27pCWbY0z18a/V8Lz07QDFb/HStGrHYUfVSa1cQvG4/jOipNVAsUtppzDjOv/Jr5NU7ykrXW/50h0wYlg5MsbFxal33nnHcP+Wiy1qLbR7yJZF4HEiupILYJ+F98svv+Qodv3/5bctrrxOaGgcaSspxZxFcsuWLVMFCxb0yThn+RQpUkTVqFHD5Y5348aN6to1c8SI/pLLPQe7Q67QyL+RyLzVmdELjXljjIza5Yj66O358f3/pg2M1AWeQmIRy4uW7bQlkIfzP+s+WbGnQnZXvP3QScWhrO2SOE5IyZIldfdtOfu6XP7/O6y4OQQG5ALZZwGyMTp4UB55LbvCBmKOWG8nyeE2Y08lZd+yob87duzQFfTilltuUXXr1lVTpkxRKSnmht409CBeMo9fvEUUV1xvmXg6vtXQueJAQNmPM3nZNgiAIAkINH7JluxiNfSXDezqHUdcW+VYEHC8CI774akOmvHdGy2Hq3pdJyh2wdtn6ko1bcV211A+72zJMDcAnyEu7pk5cuzbb7/t024YsTlENIaI8plj/nAWdpyQZKRAqlev7l4HRJ+5QrcZNs9vjclog+QRiui9x0TPljPTiRMn1H333aepkTz99NNqyJAh6sKFCzlPY8v/p2dkqF6TVwSsHDl0a+olY34qGOz4xfaOAW+0PodS/klLt/qtrbCvAJ5qYle5c9ftUSx8IyLXKHYJzm/nnccsdi2848V3/I8XJPL3/I/byZBZa9WEJVsUe8bkkNhbY06ouDPJAZuvl4K6cuWK6tevn7/m+t37ytEw/uaLlhZGBADnHTZsmLTuXM/HK1M//nVSwIxHbp0iq28zEu+x1+L6kkWV2R74zLj/3M4Rn5iivu7jv+A+uZUP/1ap2WB1+GRibreo+bfRCzfash76YoDf/zf0n81iQfQ+zeWOA/UTmDdvnlX+S0YREe9gQzKZQCEiOmhEBBQrVkzFxMTorz05crARebPlcFt1vryoxozEc/U1a9Z0V7M3fH7uuefU8uXLzbicZefgt/4/V+1UPEWS3ela/Zd9MizfanwqKhuaE6akrGbs1Ott2m/dXvfs+hMKf/fs2eNai2TEbujIGw7jb7LVz3G6D3QUxg2Gi/O+/PLLpixI4wUtrzSxxle8r07th8FzxHvJc3YC33//vUduzI4d83Tq1EnxUJqT0uYDca7FSL44+vP3ct+Eq5mrd5mKjV2i+vOece4b39T9xeToaXPW7ZhawRx8Mt5l1KxZM1WgQAGv/ZlRW+KW/xoRNclhq/BfPxFY5AZeVLhdunQxpWrzvlWrAsZ463h4S41Z7jFz2+7HnhUXL5Z5KzMFtuAkvB6iUfiftjCSPIdqduJ5XG/1At9bZ7zNYG1WGza7jjntfKdPn3Y5EuNYIUbthMb8KUQE//5+MvaeTvsIEV3SWDgeKwGrQt6aZkbiFbeB2kZWp+NY07b78Vy+N7VcunRpxTsCnJCSL1xybTmq23WCbYwjv6n7I4VPX2WbZzTDCIbqOSo3H+KP6hFS5+Qw4K1bt1Y8zWvENujMe4iIyngyUvjOvwQ66CyoGyoFB7Qxa6vaim0HLfcRULvDGGWWE419+/apUqVK3cCIGRcuXNg0seSvHokXZi7csE81j5itygdoT78348Vv6f5KvacEbieDt+fF9/pHHljII8kI7N69WzVp0sRqw8995RwiKuVfM4ezeyPACwL3GhUBH3zwgWIf92aktbti1WvfDbbkjYwjY3EoWDNSQkKCevTRRz0af+YbERFhxmVMPwc7OmKj//PIhbYM2MQL/jh6mT9T9wnLLKlvMOr6jboeZt/2+9Of1STozs1rkCZPnqwqV67std8yahtyyc/z/W2IKI8344TvrSHwKhGxn2VDlaB79+6mNZDY+CT1fvsxfu2UeQubWbGwuSFVqVLFK7+yZcuaJpCMQr6Wnq52x8arUQs2qrB+M9SLYfb1ysiLQ82KwJgbt65jl/i1rukxYjhWLhI6CEMB51Y3gu033p3EXkm//fZbdfvtt3vts4zaAx/5jxDRa9aYN1xFC4H+PgrMZ0XJly+fWrhwoWnthd9MG/aa5peOmR13mOXfnx/4yy+/zJVPZGSkaVz0nogXRXEY0D/mb3C5OGW3ok4wMuwZjd1GW5E4hrwTmOAecxcHA/9cbUV1cdw1+AWF1yaFhYUF0uhn95FTiKikFqOEY6wjcJNR3wAsIHiFO4eCNCuxb2720maW0eKphXnr95p1e67z9O7dO7tie/xbvHhxS7f78ZTGXxv3uzyPfdFzasAWVhoxVmF9Z6jTSeZMzWgpbI6VbuR+kTd3w2wVn8nL/OcFUEs9stMxO3fudHnr4wA9Fi/o89gPEtFpIvq3dSYNV9JLoDIRZRgdCfjnP/9pevx5dpfJ83tGOhL2GW+2UeFofDzykRszXh/hr3T5yjWXO1EOgPL9oNmK35qNMAp0Xl54OHbRJst9n9vZLXWgy8RJ1+eAVKGY+A0/OjpaDRgwQNWvX1/dddddufZJufVXfvqN/fmzG3okmxPoa0YF4Plwo6GDPTXkNbuOqIa9tU8LcPCOxuGRatvBE55OZ+g73v548803+2xobdq0MXQd98y8znJPbLxiz3UcpthuK/WNGAtekMlrEwKR2AGUkXtHXnuMALBTMUlau3atmj17tkpNTZVktzQPuxfftGmTGjt2rMtBT4UKFVw7jMzot/1wjhgiqmpzm4fbcyNQmIi2mVER+M3XX6Fr2Qc8B9b4vMeUG7wIVm0xzCUS2Ej6yyvYgQMH1G233ebT+DPH8PBwwx3Ewbiziveqv9N2ZNAZKt67zc59eHFioNJ3A2cFHddQFCUnEs6LqhCHOee2ylt1K1asqH744Qc1depUl7tzf/Vhud0ov9HzVCq7Cf/jjz9c+/LZrfhDDz2k8ubNq6nfMaMPN3CO1ExXvp2JqIibbcFHhxB4koguGij86xX0q6++yq2em/IbrxNITk1THDaT//o7nTx5Uj344IPXn9EXpx49ehi6pfW7j94gcoKhc+fRGV59n3j+oiE+ZmTmcK/BwDSUn4Hrk3Rhb+PGjb2254IFC6onn3xS1apVy7VPvlu3bmrUqFFq/vz5avXq1S7HXrGxsSoxMdH1LzuSJ2+Lzv4uLi7OFUadQ6lv2LDBtVh6woQJriF7dgnetGlTV/jvV155Rd19991OMfKemPEUMi/ye8Ahtg636YVAI1+GTevv7dq1M6OPtsU5kpOTVZkyZTxVfK/ftWrVyvC9x51NVu1GLFC8J97pnTxPW/Cq+4MnEgxzMesEEAD2GMI3UrffaCGPUPr+++97bb9a+zkcRysznfqU82JP8LUDCUw2q1K3bdvWNvvgpUaDlb3EYcZbb70lveQN+Y6cSlSdRv/lyBGBSk0HKY60yBEg7Zaa9I90vLAyYjyDIe/Hv0wUVystIbvN6guD8DyxRPQJHPo40ML7uOWbiWiPWRX2k08+UVevXhU30kBm5KE8jn4oYVGkSBHFC3fMTCkXL7u84/FCQDuPCvC98e6NOWt3q9RLl81EYOq5IACcPwLQYvAccZ249957RW1b0h8EUZ7jWZH7CvqwI/jZwQQeI6Jksyrtu+++a7oxFLd6jRlPnDihnn32WUMdxLhx4zReTf9h5y5cUnPX7XGNDHBcAw6XG8g3Oo7qyJED2X+D2dsuc6PDc6rSZJdIh4EsN6dfm+M5SBIvuPO1ldes/i9IznOUiJphgZ+DrbrOW/+PGf4Bsis/D6PzG7UT0t69e9X9999vyPjzcz/11FMq3aJV7iwIVm4/5Noq2HrYPPXez6MVL5DyVwfPuy7YpTB7YeOwweybwMrEi63at2+v2OGSNBn1MeEvtjivdjHLglOSDh8+bLh9Z/dtQf6X3fd+Q0R449dpQIPh8I5mVu4HHnhArV+/XtJeLcvD+4K9RfaTsAhkMCA2yrzojoUBb7njtyUO/sM+Eup2Ga/ebTdKVflhmHq9+RBXICYWDPyZjTv/xiMLX/We7srTf0aUmrR0q+KgTWZFUZQWKq/LqF27tqsDL1GihPQ0LgEDY6vd2NqRldQJEG+1k7TnEMnDq/r/IqI6RFQgGAwZnkFGgCM2TTKz0ufPn1917NjRsjdjrdaB1ynwfZm937Zo0aJqz549Wm8Dx/kgwL4Y2Otkdp1ksSZN7HrYjkYN96RdlOwSxo0YM2bM9TqUXZfwl84SUU8ielhmLpArGAmwU4d1ZjcOXhdw9uxZad9tar4jR46o8uXL+61DYEce7EcAyRgBdtLCb/zudZHjUEjTN32mQwB8rd3Y2lGYJAj9SXTt2vVv9ci9ToXYZ/b9MoOI6hERO4RDAoEbCNyaORy0y+yGUbJkScXhhC9fDsxKcV4IxB77tLj2Nfrs/NZ65swZqa0K6XwpKSnq008/9dhh/+Mf/xCz4dDQdjRquCdtoqRC44Hi+BFff/21x/pktJ07JD8b/dlZ2/h41xcSCPgkcC8R8UpQ0xvOY489pubNmyfuyCUZFy9e7PL05Y/n8XZO9iTICwyRtBPgepHbgkx2zSxNvL4BxlabsbUjp/faj5YWvWI/Hd7aaZB+v5+IhhLRu3jT92nrcIAXAk9khXf0S+OpUaOGWrZsmbhR+8rIK/KnT5+uKlWq5Jf719Jx8KjHtGnTfN1qyP8eHx/vcpPqi+kdd9whZqUnwJQdDWCo3xPvQpEmdvPrq245/Hd21DMq6y3/Hi/9Ob4GAd0EniaieH82Dna7yyEuExLMcRt79OhR1adPH12+/P35fHzuBg0amPZ80k7Qjvk4mmSvXr0UCyUtZXDnnXeKH6NhL+0RJkPd2Nrx+TuPWSwueyum/bTUX5OO4SH9NUQ0gIg+wyI+3TYNGXQSeMrfIoAbBu8YYP8BHFgnKipKszMh9jfA23x4VX/ZsmVVnjx5NBkTkxqj5mvx8PXIkSMd6ylR3Pt6yMj7+idPnqxbpHEQFWlij4p2NGy4J23TEkNnrxMVPb9YWN3WTbxeYg5j/wwR5dfZf+NwEDBMgKMHsltIyxpTgQIFXAaiSpUqql69eoqjDn733Xfqyy+/VHXq1FGvv/66uueeeyy7H7Oenf0jDB06NCSFAE/LsO+FF154QVRuXN7S9AUEgKMF0Kw1u0VFv2XLFlFdM6u9azhPChFtyYqw1y3rrb4CEZU23GvjBCBgIoH7/LE7QEMDsXsDFt0fL4bkEQGzYwiIekk/Z2JnPkOGDHHFOjdS3vfdd5/4Thv8NsXRBjDURwrYA6UkRUZGStpnJBHNzHr7PkhE/Cae5KPupmcdxy9KB4hoIxGtIKIFRDSGiH4jou+IqC4RvZrpc+VxIipmYv+MU4GA3wmUIqIoHw1B0uBCNs8tt9ziGt3gN5VgS7t371atW7c2zdsi7xCQps8hABwtgI6eThIVff/+/SV9C7/saE0liKiQ1oNxHAg4nQA7kPgjxETAVSue97nnnlOdO3dWu3btEnV2dsh06NAh9dtvv6ly5cpJOt5c8/D0iTRBAGiba7fjSAMHv7p8VRZ/omXLlrnWKQ/tmts65tmdbqVw/34n0ISILDGMHhqp3kZt5HgeAvwnEfW38j7Y2PF6B54mYEFgVaAhvQaW3SqvWbPGJVyef/55I5x95jUiAD7rPtnRb8B2NMxW3VO1Vr/rrZbXj//Pf/7js17laNe8pQ4JBEBAA4FKRMQNRm8jc8rxs4iIh/g4cawEnssLyL1zJLxq1aqpDh06qFmzZqmYmBh17Zrsreh67yj4cO7cObV06VLVs2dPVbNmTcVTGFYx4Zju0vQpBIBjBRCXnTQJ3H6vymrv+AMCIKCBQEkimmyVEbDoOmlE1CrL6Lsj4KHBaRbdg0/DWqhQIcXTBh9++KFrG+To0aPVokWL1M6dOw3FXkhNTVUcQpUN/fDhw13z+ByR75FHHgnoNsu77rpLagcUBIBzpwA45LU0cZ3R2V7Huzd4fAYBENBGoL4/PQfqbMR6G7378dFExL4PvKV8WU443PPY8jMLBF45//TTTysenmeviFWrVlW1atVybaVkF6n8/1dffdX1Oy+yu+mmm2z5LFz+RjwBft4DuwCsGrI3+zr9pq0S2X+OOyKI+NndW8PH9yAAArkT4EBCI4mIY0zb1pB4ubcLRNRWxwKg74mIt/447Tkde79GggHBEZBzRwAmLtkqEgAHDx6U1HXeqocEAiBggMDLDtouyGKF5/YlPrSrE9EpiABrRFCpUqVEhoAzIRiQcwXAsi0xonLnKSxB2/zKQL+HrCAAAm4EahHRDkEjlDRcSZ75RPSC2/1KPt5ORPNs/IwSLrbMU6JECZEh4ExhfWc4dhGc2UPqTjvf3qOnReU+atQoST3+WNIJIA8IgIBnArx6vgYRLbGJkeRh+6lEVNbz7Yq+5Wf8VoO3MEmHhDxZ0ywc1EWaGodHQgB87cxRgHMXLomKnX1qCPqcD0Q9ADKBAAj4JPAsEfW1IriQh4Z/OPO7DplrFPR4+fL5QDkOuC3LSZIT10BIOktL8/ACRWlqOmAmBIADBcArTSKkRe7yo+GhH/BVZ9/J0abxXxAAAZMJFCCit4kogojY0Y6vRin9nX1y98ryvZ3X5GfI7XQczGO5H59LysPR+QoXLiw2Bs0jZkMAOFAAfNBhrLjM33zzTUl9r5Jbw8ZvIAAC5hN4lIh48Q0LAnbEkSwwnryKfxMRDSWiT4joIfNvU/cZK0MImCfuOEKkNLUYPAcCwIECoEn/SGmRq8cff1wiAHgBMxIIgEAACfCc+gNEVJGI/pMlDloSUWu3fzzn/n7m2gL2Rni/B6c9Abz9Gy79ChFNzNxmeFkgbCSdmFPy7M+KuqbpfvPlyyc2Bq2GzoUAcKAA6DZuibjMhT4tytzQevEFCIAACJhA4I5M3wE/+3naQ5MxDaAQYRHE3hSrZom2OnruRWoN2g6fDwHgQAEwYl60qMjPnDkjbQccphcJBEAABPxK4KWsBZFxegygQ4/lRZE8tfN1ZlAlDintnmrqeSZp/IOfRiyAAHCgAFgQvU8kADZt2iQVADyaiAQCIAAClhFg18M8vfFXEE0TXMtyBtXMh5OlN/UIAI4+KEnt/1gEAeBAAbDj0ElJcatp06ZJBQDHNkECARAAgYAQKJb5tswrkXnL4kLhgkhp52ckH7/lb88a1eCtVPwcWtKregRAWlqayCB0Gv0XBIADBUDC+Yui8uZolXrqlduxvEMJCQRAAARsQYC3L/IuiQ+JqAcRLSKio24dlrSjM5qPw0DPzlrTUI2IpG9OL+p5Fo5UKEldxy6BAHCYAKjYdJDKyJCUtlLffvutpH5fskWLx02AAAiAgA8C/Ib9PBHVI6IfiWhwplvjuUS0Mys+wVU9htXDsalExM6TeO6eYyV0IaIvMkcl2MfBLT7uTc/P7BxKc2edkpIisgi/jF8KAeAwAVCn0zhRWXOm6tWra65TbvUvXk/FxbEgAAIgYGcCvOCO/SGwUGDDzSvv/01EvPI++x87ZOLvOSYCb4FiT4lFLXwoHt3Q3FmfO3dOZBR6TFwOAeAwAdA8YpaorDnTY489prlOudW/GAvrPS4FAiAAAiFPgFdda+6sExISREah95QVEAAOEwC/TVouKuuMjAxVpEgRzXXKrf5tDvnWCAAgAAIgYCEBjqaoubM+eVK2KrzP1JUQAA4TAOMXbxEJgLi4OM31KUfdW2FhvcelQAAEQCDkCRTP0Qnn2nkfPnxYZBTCp0dBADhMACzfelBU1lFRUbnWoVzq25yQb40AAAIgAAIWEiiUS4d8Q0e+Z88ekVGIiFwDAeAwAbDv2BlRWY8dO/aGeqOxjo23sN7jUiAAAiAAAplbCdM1dtBq69atIqPw+9xoCACHCYALly6LyrpTp05SAdAfrREEQAAEQMBaAhe1CoB169aJjMKYRZsgABwkAKr8MExUzpzps88+kwqAjtZWe1wNBEAABEAgUasAWLFihcgwTF62FQLAQQLg418nicqZM7322mtSAdAUTREEQAAEQMBaAie0CoCFCxeKDENk1E4IAAcJgDbD5onKmTPdd999UgHwkbXVHlcDARAAARA4qFUAzJw5U2QY5q3fCwHgIAHQf0aUqJyvXLmi8uXLJxUA1dEUQQAEQAAErCWwS6sAmDJlisgwLNl8AALAQQJg+sodonI+cOCA1PhzPo5LgQQCIAACIGAhgU1aBcCYMWNEhiFqx2EIAAcJgLW7YkXlvGjRIiMC4BEL6zwuBQIgAAIgQESrtQqAYcNkq8Oj9x6DAHCQADh6OkkkAIYOHWpEAHDsDCQQAAEQAAELCSzRKgAGDBggMgzbYk5AADhEALzwTX91+eo1UTm3adNGKgAuE1EeC+s8LgUCIAACIJAZrXC2VgHQs2dPkWHYe/Q0BIBDBECNNiNFZcyZPvzwQ6kAOIaWCAIgAAIgYD2BCVoFQJcuXUTG4dDJBAgAhwiAhr2micqYM7344otSARBtfbXHFUEABEAABIZqFQA//fSTyDjEnUmGAHCIAOg4apGojDlT6dKlpQJgFpohCIAACICA9QR6aRUALVu2FBmHs8mpEAAOEQDD5qwXlXFKSorU+HO+YdZXe1wRBEAABECgg1YB0KRJE5FxOJ+aBgHgEAEwd50s4uP27duNCIDOaIYgAAIgAALWE2iuVQA0bNhQJAAuX7kGAeAQAbDlQJyojNlLpNZ65OG4RtZXe1wRBEAABEDgSw8dssfOvH79+iLjkJGhFG8ve94hRjCU7zM+MUVUxv369fNYZzTWrQ/QDEEABEAABKwn8KHGTlr9+9//FhkHzvRy4wgIAJsLoAqNB6p0VmuC1LRpUyMCAG6ArW/3uCIIgAAIUA2tAuBf//qXwDT8X5aqLYZBANhcALzfXubqmUv43XffNSIAbkc7BAEQAAEQsJ5ARa0CoFy5cmIB8G67URAANhcATfpHisv36aeflgqANHgBtL7R44ogAAIgwASe0yoAHn30UbGBqNd1AgSAzQVA9wnLxOVbrFgxqQDYj2YIAiAAAiAQGAIPahUAd955p9hANOw9DQLA5gJg/OLNovI9ffq01PhzvsWBqfa4KgiAAAiAQGmtAqBo0aIiA8GZmkfMhgCwuQBYse2QqHzXrVtnRACMQBMEARAAARAIDIFCWgUAH3f16lWRkfh55EIIAJsLgMMnE0VlO3bsWCMCoGNgqj2uCgIgAAIgwAQ4HKumTjwxUWYkeH45lPfX2/3ZjYQB7tChg6a646WOfYomCAIgAAIgEDgCZ710zjd07EeOHBG9JQ74czUEgI1HAGr++IeoXDlTvXr1bqgnWusTEb0cuGqPK4MACIAACBzW2mGzz3dJGjl/AwSAjQVAWL8ZkmJ15TEQBpiFwz/Q/EAABEAABAJHYJtWARAVFSUyFJOXbYMAsLEA+HXCUlG5cqZSpUpJRwDOBa7K48ogAAIgAAJMYJVWATBv3jyRoeAoc3afBw/l+xu7aJOoXHlNiNa64+G4DWh+IAACIAACgSUQ6aFz9tixT5o0SWQoVmw7CAFg4xEALh9JMrgFcEJgqz2uDgIgAAIgwHuxPRr8nN8PGzZMYifUxn3HIABsLAAOnkgQleu4ceM01Zuc9Sjr/53R9EAABEAABAJLoLuXDvqGzr1Xr14iQ7H36GkIAJsKAN4CmHZF5t+hY8eON9QRrXWJiD4KbLXH1UEABEAABFpo7bR5z7ckHTt9DgLApgLg7bYjJUXqylO/fn0jAoDjUCCBAAiAAAgEkMDnWgXAd999JzIWSSkXIQBsKgDC+sq3AJYvX14qAK4SEXuhRAIBEAABEAgggZpaBQC/8UlSekaGejFsAESADUVAj4nLJUXqynPrrbdKBcDOANZ3XBoEQAAEQCCLQHmtAuCtt94SG4tqrX6HALChAJi8bKuoTA1uAZyE1gcCIAACIBB4Ag9rFQDPP/+8yFhwprpdxkMA2FAArN99VFSmq1evlr79c752ga/2uAMQAAEQAIGbtQqA+++/X2QsOFOj8D8hAGwoAOKTUkRlOmLECCMCoBaaHQiAAAiAgD0IJGsRAUWLFhUZC86EkMDhthNAlZoNVhkZsiJt2bKlEQFwvz2qPe4CBEAABEBgtxYBwMekpqaKLEb49FW2M4Ch7P6Xn/3jX2WeHbkC1KxZUyoA4tHcQAAEQAAE7EPgL60CIDY2ViQA2N98qBtcuz0/j8pI08MPPywVAHPsU+1xJyAAAiAAAqO0CoDo6GiRzUBAIPtNAYyYJyvLtLQ0lS9fPqkA6IDmBgIgAAIgYB8CXbUKgMjISJEAWLc7FiMANlsEuGRzjKgsd+zYITX+nK+Gfao97gQEQAAEQCBMqwAYNGiQyGjsO3YGAsBmAkAaBGjq1KlGBMBtaG4gAAIgAAL2IfCuVgHw008/iQRAQnIqBICNBMArTSLUtfR0UVl27txZKgAO26fK405ABVP7CAAAD7BJREFUAARAAASYwLNaBUCDBg1ERiM9PUO9ENYfIsAmIuDzHlNE5ciZ6tWrJxUAY9HcQAAEQAAE7EXgJiLK0CICqlWrJjYcb7QcDgFgEwHw64Sl4nJ89tlnpQLgC3tVe9wNCIAACIAAEzihRQA888wzYsPB+87tthUuVO8nMmqnqBwvXryo8ufPLxUA7HYaCQRAAARAwGYEVmoRACVLlhQZDs7UZtg8CACbjADsiY0XleO6deukxj/OZvUdtwMCIAACIJBFYKQWAcDHJCUliYxH+PQoCAAbCABeAHjl6jVRGUZEREgFwAS0NBAAARAAAXsS+FGrANi8ebPIeExdvh0CwAYCIKzfDFH5cSZeBKq1nuQ47mt7VnvcFQiAAAiAwIc5OmyvHf20adNEBmT1ziMQADYQAENnrxOVH2cqU6aM13rho/78PzQxEAABEAABexJ4zkcHfr3j79mzp8iAHD9zDgLABgJgw95jovLjBYAFCxa8Xg+01hci2mPPKo+7AgEQAAEQYAIFieiylk49LCxMZEDSMzIUzz+H6sp7Ozx3+UYD1aXLV0Xlt3jxYonx5zx90MRAAARAAATsTWCzFgFgxBfAR90mQgAEcBTAyPw/e4HUUj88HFPV3tUedwcCIAACIPCHh877hk7/3nvvFb1BciYOQWuHN+FQvYeJS7aKy+6VV165oS5oqC8pRFQITQsEQAAEQMDeBJpp6NBdRkC6FXDUgo0QAAEcAeB1GJKUmpoqnf+PtHeVx92BAAiAAAgwgde0CoCoqCiJHVEb9x2DAAiQAKjTaZyozDjTokWLJG//nOdjNC0QAAEQAAH7EyihNSbA4MGDRcYkNe2KejFsAERAAERAROQaUZlxplatWkkEQBoRFbd/tccdggAIgAAIMIHdWkYBGjduLDYmdbtOgAAIgAA4fDJRXGaPPfaYRADMRJMCARAAARBwDoHBWgRAhQoVxMakz9SVEAAWCwAj4X937twpMf4Y/ndOm8edggAIgICLwH+1CIACBQooXhgmSVsOxEEAWCwApq/cISkqV55OnTpJBACG/9GhgAAIgIDDCNypRQDwMStXrhQZFXYI9GbL4RABFomASk0HqZSLl0VlxZnKli0rEQDTHVbvcbsgAAIgAAJEtE+LCPj111/FRoUXpIXqXnyrn7v3FJlQ48I9fPiwxPhznrfRkkAABEAABJxHYLgWAVCjRg2xADiddEGxW1qrjWGoXY8Zn0o8Ly4n4fD/SSLK77xqjzsGARAAARB4X4sAKFSokEpOThYbF3gFDPe7AOo0+i9x+aSnp6v7779fMgLwC5oQCIAACICAMwkUJaJULSJg4sSJYgOzOzbe7wYw1N743Z+X3/5j45PE5bNgwQKJ8c8gokecWe1x1yAAAiAAAkxgmhYB8MEHH4gNDGf8sudUiAA/LQbsN22VobKpXbu2RAAsQ/MBARAAARBwNoF6WgRA0aJFlTQuAFunJZtjIAD8IADeaDHM0Mr/U6dOKd7qqaUO5DimlrOrPe4eBEAABEDgFiLivdw+jUDfvn3Fb5rp6Rnq3XajIAJMFgGRUTvFZcIZ27Vr57PcPdSN/USUF00HBEAABEDA+QRme+jkbzAMDz/8sMrIyBAbnFlrdkMAmCgAmvSPVAaKQ507d06VKFHihnLWUBcaOb/K4wlAAARAAASYwCcaOn2XofjrLyOrzTNUnY5jIQJMEAE89H82WeahMVvBdezYUWL8E4noJjQbEAABEACB4CDA0QE1TQO8//772fZD9HfJ5gMQAAYFQLlvwtXqnUdE/LMz8bbOkiVLSgRA1+Co8ngKEAABEACBbAKztIwC5M+fX8XExGTbEd1/eci6Ya9pEAEGRMCoBRt1c8+ZoWvXrhLjf46ISmVXGPwFARAAARAIDgIfaREAfMxXX32V057o+v/BuLPqpW8HQAQIREC3cUt0sfZ08MmTJ9Utt9wiEQCdgqOq4ylAAARAAATcCdxMRBe1iAD2DHjs2DFPtkXzd72nrIAA0CkAWgyeo3g3hdH04YcfSox/EhHxVBESCIAACIBAEBKYqkUA8DHfffedITt0Me2Keq/9aIgAjSLgpxEL1NVr6YaYc+YVK1aoPHnySARA+yCs73gkEAABEACBLAK1tQoAdgwUHx9vyCDtOhKPqQANAqDn5OWKQysbTVevXlXPPPOMxPjHEVExtBIQAAEQAIHgJVCYiJK1ioC2bdsatUlq8Ky1GAXwIgJ4ncSEJVsMM84+wY8//igx/pynfvBWeTwZCIAACIBANoGxWgVAsWLF1IkTJ7Lti+gvz2k3GzgTIiCHCHi77Ui1LcYYW/cCWb58ucqXL59EAKwlojzZlQN/QQAEQAAEgpfA21oFAB/XoEEDdzsj+pxy8bKq3WEMRECWCGg9bJ46n5omYukpE0/V3HnnnRLjzxH/Xgreqo4nAwEQAAEQcCeQn4iOaxUB/Fa5detWT3ZH13dHTycp9m7nHuY21D7X+mmUWrX9sC5uvg5m183Vq1eXGH/OM9y9YuAzCIAACIBA8BPorFUA8HEVK1ZU6enGV6jHxJ0NSRHwcuMINXT2OnX5yjVf9lz3723atJEaf174VzL4qzqeEARAAARAwJ3AvUR0TY8IGDRokG7j5CnD4ZOJqlqr30NiJKBCo4GKHfucTrrgCYXh74YMGSI1/pwP4X7dWwQ+gwAIgEAIEZirRwAUL15cHT9+3LDR4hPExiepOp3GBa0IqNRssOo7bZVKMBjMJzfYM2bMkC76Y+PPC0GRQAAEQAAEQpRAVT0CgI+tUaOGoXDB7gYt9dJlxZ7vgmkdwEfdJqrpK3eo1LQr7o9q+md29lOkSBHp2/9R+PsP0RaPxwYBEAABNwIb9YqAPn36mGbQ2PfN+MWbVcWmgxwrBKq2GKZ+Gb9U7Tp8yjQuuZ1o7ty5ip006S23rOOvElFFt/LHRxAAARAAgRAl8F+9hqRAgQJq3bp1udko3b/FJ6WolkOcMxrwevMhqv0fi9TK7YdMcd+rFdj48eMV89dbZm7HtwjReo7HBgEQAAEQyEGAtwQecjMQmozLww8/rBITE7XaLc3Hrdh2SH3afbLtRgNe+Ka/+viXiSoico3afCBOXTNhR4RmKFkH9u/fX+XNm1dT+XgpTw4HDYc/ORoA/gsCIAACoUzgMy8GI1djU7lyZXX58mW9dkzT8dF7j6lG4X8qNryBWCNQ7ptw9UGHsarL2MVq/vq9KvH8RU337Y+D0tLSVFhYWK5loaH89mPeP5SbOJ4dBEAABDwTyJu5JWyLBiNygxH67LPP/GHzrp/zbHKqmrxsm2rYe5pfxcCrzQarBr9NUf2mrVIrth1USSmBM/jXH14pdejQIfX888/fwF1nWSUQ0aOeix7fggAIgAAIhDoBXe6B3Q1Q586d3W2W3z4np6aptbti1Yh50ap5xGz1TtuRqnyjgZpHCF4MG6DeavW7ayj/x9/nq5HzN7jm8OPOJvvtno2ceObMmapkyZJGjf9lIno91Cs3nh8EQAAEQCB3AkvcDbuez927dzdi6wzl5bf1g3Fn1Ya9x9T63Uf//m/PUXXg+FnXfnwTou0auk+tmRMSEtQXX3yh8uTJY9T4s5//j3MvcvwKAiAAAiAAAkRliIi3iYkMj1UjAVoNqROPmzJlirrttttE/HOUGxv/JqjUIAACIAACIKCVQI8chkSXMerYsaMT7W7A7/nAgQOqWrVqulj7KKfWWgscx4EACIAACIAAEyhERHt8GJdcDdV///tfdfGiPRbRBdyy+7iBY8eOqWbNmqlChQrlylRnebRFVQYBEAABEAABCYHKRMRDyGKjVKZMGXX06FEf5i90fz579qxq3bq1EXe+nsqGy6y5pMCRBwRAAARAAASyCUQYEQCc95577lHssx7pfwQOHjyovv/+e1WsWDFPBtzId7zav2524eEvCIAACIAACEgJ8FRAtFERwCvZv/rqK5WSkvI/KxiCn6KiolSdOnWMRO/LTRykEFE1aUEjHwiAAAiAAAjkJHA/EZ01KgI4P7sOXrVqVUiZ/lOnTqnw8HD1xBNP5Ga8jf4WQ0TP5iw4/B8EQAAEQAAEjBKoQkTXzBABPBrAb8H79+8PWiHAix95K1/NmjWNBu3RIgzmElFJowWM/CAAAiAAAiDgjUA7MwRA9jk4mt3XX3+tjh8/HhRCgBf0TZgwwSVuihQposVwGz0mnYh+RmAfb9UV34MACIAACJhFgCPI/Z5twM36y8aS1wdER0c7SghkZGSozZs3q27duqmXX37ZX/P63kTCESLiXRpIIAACIAACIGAJAQ4bPNMs45/zPM8995waOHCgSkpKsp0YYIO/a9cuNXToUFW/fn111113eTPO/v6eRdjNlpQ2LgICIAACIAACbgR4Z8CcnMbbzP8XLlxYvfnmm6pnz55q27Ztio2v1Sk1NVWtXbtW9e7dW9WqVUuVLl3a34bd1/n5rf8dt3LARxAAARAAARCwnACLgNlmGv3cznXHHXe43rojIiJcuwiSk82L3JeWlqZ2796tZs2apXr06KHq1q3rWrGfL18+XwbZqt/TiKgrERW1vJRxQRAAARAAARDwQICnA4bnZrj9+dvtt9+uypcv7zLYTZs2VZ06dXJNH/AQ/cSJE12r8Hkl/ogRI1zD9n379lXt27dXYWFh6r333lOVKlVS9913n8qbN69VhlxyHR5pedQDe3wFAiAAAiAAAgEn0CxzNTqvSJcYOOTxzG0dEb0e8JLFDYAACIAACICADwIfEtF5iADDImgDEb3rgzV+BgEQAAEQAAFbEXgg0xXtWogAkQiIIqKatipN3AwIgAAIgAAI6CDAiwP7GY0iGCIi4gIRDSOif+rgi0NBAARAAARAwNYEKhHR9hAx5HrXMewkoqZEVNzWJYibAwEQAAEQAAEhAd4lwAsEkyEEXMGUhhJRRSFLZAMBEAABEAABxxG4m4iGEBHvZ9f7tuzk4+OIKIKIOJBSPseVGm4YBEAABEAABEwicE9m1LpwIroYpEKAoyWuzzT2XYjoZSLKaxI3nAYEQAAEQAAEgoLA7UTUjYiOBYEQiM1yhlSHiEoFRengIUAABEAABEDAzwT4DbkqEY0mohSHiIHDRDSOiL4losf9zAenBwEQAAEQAIGgJ1CMiOoR0XgiOmMTMXAla0i/LxHxG/5dQV8KeEAQAAEQAAEQCCABHhkoQ0SNM/3gT8gUBvstcDV8LnM0gp3xDCSiLzOjHZYjosIBZIBLgwAIgAAIgAAIZEXCY6PMowQ/ZjnQ4UA5a4hoX6ZYOJu5tz7RbacBxybg//M/DqPLe++XEdHkLCP/U2a+ukT0IhHdCsIgAAJ/J/D/AZWG3S0K0d/SAAAAAElFTkSuQmCC;" vertex="1" parent="1">
          <mxGeometry x="715" y="400" width="40" height="40" as="geometry" />
        </mxCell>
        <mxCell id="RPyfaxSfyp_0bqqtKNeq-9" value="cosine similarity" style="rounded=0;whiteSpace=wrap;html=1;" vertex="1" parent="1">
          <mxGeometry x="510" y="385" width="120" height="60" as="geometry" />
        </mxCell>
        <mxCell id="RPyfaxSfyp_0bqqtKNeq-12" value="vector" style="rounded=1;whiteSpace=wrap;html=1;" vertex="1" parent="1">
          <mxGeometry x="425" y="380" width="60" height="30" as="geometry" />
        </mxCell>
        <mxCell id="RPyfaxSfyp_0bqqtKNeq-15" value="" style="endArrow=classic;html=1;rounded=0;exitX=1;exitY=0.5;exitDx=0;exitDy=0;entryX=0;entryY=0.5;entryDx=0;entryDy=0;entryPerimeter=0;" edge="1" parent="1" source="RPyfaxSfyp_0bqqtKNeq-9" target="RPyfaxSfyp_0bqqtKNeq-6">
          <mxGeometry width="50" height="50" relative="1" as="geometry">
            <mxPoint x="560" y="540" as="sourcePoint" />
            <mxPoint x="610" y="490" as="targetPoint" />
          </mxGeometry>
        </mxCell>
        <mxCell id="RPyfaxSfyp_0bqqtKNeq-17" value="" style="endArrow=classic;html=1;rounded=0;exitX=0.5;exitY=1;exitDx=0;exitDy=0;exitPerimeter=0;entryX=1;entryY=0.5;entryDx=0;entryDy=0;" edge="1" parent="1" source="RPyfaxSfyp_0bqqtKNeq-6" target="RPyfaxSfyp_0bqqtKNeq-18">
          <mxGeometry width="50" height="50" relative="1" as="geometry">
            <mxPoint x="680" y="580" as="sourcePoint" />
            <mxPoint x="660" y="550" as="targetPoint" />
            <Array as="points">
              <mxPoint x="735" y="550" />
            </Array>
          </mxGeometry>
        </mxCell>
        <mxCell id="RPyfaxSfyp_0bqqtKNeq-21" value="" style="edgeStyle=orthogonalEdgeStyle;rounded=0;orthogonalLoop=1;jettySize=auto;html=1;entryX=0.5;entryY=1;entryDx=0;entryDy=0;" edge="1" parent="1" source="RPyfaxSfyp_0bqqtKNeq-18" target="RPyfaxSfyp_0bqqtKNeq-1">
          <mxGeometry relative="1" as="geometry">
            <mxPoint x="200" y="550" as="targetPoint" />
          </mxGeometry>
        </mxCell>
        <mxCell id="RPyfaxSfyp_0bqqtKNeq-18" value="build context" style="rounded=0;whiteSpace=wrap;html=1;" vertex="1" parent="1">
          <mxGeometry x="360" y="520" width="120" height="60" as="geometry" />
        </mxCell>
        <mxCell id="RPyfaxSfyp_0bqqtKNeq-22" value="prompt with context" style="rounded=1;whiteSpace=wrap;html=1;" vertex="1" parent="1">
          <mxGeometry x="150" y="510" width="110" height="30" as="geometry" />
        </mxCell>
        <mxCell id="RPyfaxSfyp_0bqqtKNeq-24" value="similar texts" style="rounded=1;whiteSpace=wrap;html=1;" vertex="1" parent="1">
          <mxGeometry x="570" y="510" width="80" height="30" as="geometry" />
        </mxCell>
        <mxCell id="RPyfaxSfyp_0bqqtKNeq-30" value="" style="shape=image;verticalLabelPosition=bottom;labelBackgroundColor=default;verticalAlign=top;aspect=fixed;imageAspect=0;image=data:image/png,iVBORw0KGgoAAAANSUhEUgAAAUAAAAFACAYAAADNkKWqAAAgAElEQVR4Ae2dbawdV3nvfW4RUqXqqtIVH3q/XHE/VO0H0tjBcRI7TUgKKpGCUgwRElFSQVAoJgTiOHFMgUAS27yc47cQkjgYYzvGx6/HATtvJg74GCSkFoR0CwJa9UNRkWIVRQY3gQ//y2+deY7XnuyXmb1nZs/seSwtzd77zJ5Z679m//ys9TzrWUuW+D9XwBVwBVwBV8AVcAVcAVfAFXAFXAFXwBVwBVwBV8AVcAVcAVfAFXAFXAFXwBVwBVwBV8AVcAVcAVfAFXAFXAFXwBVwBVwBV8AVcAVcAVfAFXAFXAFXwBVwBVwBV8AVcAVcAVfAFXAFXAFXwBVwBVwBV8AVcAVcAVfAFXAFXAFXwBVwBVwBV8AVcAVcgVYocPy7umRuXudCOaMVrWi0N9IVcAVcARRYBOBZnZ9zAPpD4Qq4Am1SwAHYpt72troCrkCHAg7ADjn8jSvgCrRJAQdgm3rb2+oKuAIdCjgAO+TwN66AK9AmBRyAbeptb6sr4Ap0KOAA7JDD37gCrkCbFHAAtqm3va2ugCvQoYADsEMOf+MKuAJtUsAB2Kbe9ra6Aq5AhwIOwA45/I0r4Aq0SQEHYJt629vqCrgCHQo4ADvk8DeugCvQJgUcgG3qbW+rK+AKdCjgAOyQw9+4Aq5AmxRwALapt72troAr0KGAA7BDDn/jCrgCbVLAAdim3va2ugKuQIcCDsAOOfyNK+AKtEkBB2Cbetvb6gq4Ah0KOAA75PA3roAr0CYFHIBt6m1vqyvgCnQo4ADskMPfuAKuQJsUcAC2qbe9ra6AK9ChgAOwQw5/4wq4Am1SwAHYpt72troCrkCHAg7ADjn8jSvgCrRJAQdgm3rb2+oKuAIdCjgAO+TwN66AK9AmBRyAbeptb6sr4Ap0KOAA7JDD37gCrkCbFHAAtqm3va2ugCvQoYADsEMOf+MKuAJtUsAB2Kbe9ra2UoHHT+svPnRQ73r4hC5dIk21UoQejXYA9hCGj6Up9Dl2Vu/gGepzpv/JFaivAuvmtOneOelT39Th9x7UH9W3ptXXzAHYW/MHHtD/ODavvXPz0ty8NvU+0//iCtRYAQPgJ47qiAOws6McgJ16xO8A4PF5zR4/Kx07o+n4b/7aFWiMAgBw7THJAfj6LnMAvl4T+8QBaEr4sdEKOAB7d58DsLc2DsDe2vhfGqSAA7B3ZzkAe2vjAOytjf+lQQo4AHt3lgOwtzYOwN7a+F8apAAAvOtIO+YA+dEe/J7++JFT+l+Hz+j/AjjCOA5/V6sPndGth87oI8fndT8Fz2bwcp7V+bl5vZZ4PDfZ3zmX7/BdrsG1uCbX5h7cq0GPQe6qOgBzS+ZfqKMCkwhAvNnbT+p/Ep8GnIDVvpe0MYHYC0fP6P8dm9cvZ7+rXwO3JJSDcA7h1RxU7HzOS14DyFe4Jtc+Pq8zBkzubbFywHFSPO0OwDr+mr1OuRWYBAAa7HY8p3dufV4b9n5Hh3ed1vd2vaj/2POSXt3/HSkuh84EcL0GAIHW8Xn967F5/TPgmpvXC3NndSwUXi8AEkh2fJ5Aju/w3V8CwBimBtEIkJzD+bNYkViOAJq65+60GnzBAViDTvAqjK5AEwHIEBN4AJGnXtJ0DLtdL0p7TiflJb0KBAEPUDwyr0eBD0NXrLK5M1rBsHXvd/VnWGfAKAxfT+sNttJhbl7nAtzOaAVqP3Bab+AczuU7fJdrcK3E2ryVe3AvIMq9AaTBMQIjViPwPcO51IlhNNcevVfLv4IDsHyN/Q4VKHDHrDauOVzzOUBpCth84aSuwcL7ygs6Adie+LZkBUuPz3af1vMJUDqGnoCrp5w9lgBmdoL0+D73pN7xUDyBMEPkDihiKSafYXVuAqZ8t67LEx2APZ8m/0OTFKgzAAFAGNY+p5nNJ/VPW5/Tb778gkT5yikJ4AFDoMh5WGJFWlCZAZizw6kjdQVyWItYigylsRIXLcSzOh+sxzOariMMHYA5O91Pr6cCBsAPH9JcHSbogQOW3vRz2mjQ2/a8RAGAM8/q7NbnNAPwHjqh//PAQb0xKNvDChtF9bIAuFgn6vyHQhsMiFh/yfwic4rBIQMYgSF/Y6hdh3lDB+BiL/qLJitQBwDyYwJmn/umPvqFZ3QqAZ1mnl2AXvjseW24fy768ZcAvHQ/GgDjOcD0OUW+RweACOAAXbAOFxwx5wyGibPlBbzLQDN8p8hKZLyWAzCjUH5avRUAgHcclMZhAWL5ALUHT2hm00n9+xefkSiLll4CvSKHtXl6o2oAdqsbbTcYBi/1WZ238BuGzcHZckYrqtbIAditt/yzxikwDgBi4TCE/eIzmn3oW/qvjSekzSclILjxpJ7gb3UY5tUBgPEDhSbMByaOFOYMwxA5WIVndQyveFW6OQDjnvHXjVWgSgDy43zwpN7DkPbhE/rvB78lcWRej+EvQ7o6zENaZ9YNgFYv4INWDIODVZg4T+YWVq0wPL41eJDtCyUcHYAliOqXrF6BKgBo4Lv/aZ028GH5ff6kjgHEsn+sw6oKAJNg6VcYhg57nVK+lzhQ0A7LL4k5fCUZHr8GGAFhWRahA7CUXvWLVq2AAfC2WR0t2vpiXop0+4Bv/XFd+PQ3JcBH9mmGuVXPW+XVttYATDUGLZOwmlmGxAZCVrAAyKK1dgCmOsDfNlMBAPiBWalIAAJSnBvr57QP8N1/XOII+AhxWQxdqblkBsCwZrhuFmAP7Qi+fh0IcZzMaxYrtqj/5ByAPTrAP26WAkUDkHAWltetP65zMfiaYPGle66JALQ28J8MIAxrmi96js+Rvp75Qztv2KMDcFjl/Hu1UqAoADLE2vC0/v5jR/QzNlmi3HlYP+CzsuahShUy2fUM669JFmBaE7RnCJw4S0L2GjLWjDo/6ABMK+3vG6nA+/dr06hDYLbUZE8RhrnsLwIEP3FEG969V3/WSFGSSmNBscaYwuvGtkWaImkDgdXEDi7OD7IE77u6ZJh2OQCHUc2/UzsFAOCtB4abA7z2Af0J4SsAj6SqAJB5v0nZY5gwE0ujhcVUu87LWyHby5ftLJNhMQkYaGdeK90BmFd8P7+WCgwLwI8c0F/ecUizaw7rAvADggx3i/Y2jlM0Um2RWgsI8nqcdSny3vQRw+JkfTHD4tdCQoYc1qADsMge8WuNTYG8ALz2Ab3B5vpIowUAP3pYT+D8GFsjSrgxTgRSa1luQfIJ9k2pVUIdyrwkAMMZEpbSJdYgw2Ms3Sz/iTkAy+wdv3ZlCuQB4NUb9aYPHtA00AN+ZvU1Jawlj6jMmeEsMADyuq4B23nalT6XvsMaDKn8SfF/VueBIu1Pnxu/dwDGavjrxioAAN+/f/AcIHF9JEwgcYIlT2AY3NiGD6g4MXNPfFuvGADxBA/rMBhwq/H+OcmqQ9tCrODFPVJe6Lf6xQE43m7zuxekwCAAEjjLag6sPcB36zf0Mh7evJPmBVW3ssswFEyn158IR0gfBenTJAXXOTzFDImxDrsFTzsA+wjpf2qOAv0AyFzQe/ZpLdAjVOaW/foRMOz2g2hOi7PVlGEgAIwhOEmOkF4q2EoSGxKHZXXzuj89L+gA7KWgf94oBQDg+556/RCY+a7Ve/XobQd0Afgx/J3kIW/caVhCyUZLAYAGQZwiaRDE35uY10m4TNgJb35hBz3+Q4jnQB2AE9Pb7W5INwDi0WVtcIgPPLDg5W16UHOeXmY+jP1GzAKMjv9RxDKyPHUZ57kAL3iJbV6QnIPJMjoH4Dh7xu9dmAIA8ObEAuShxsp77z7NB8fIAV1gqRwBz4XdsAEXYq7PdpuL4CdWhDAn1oAmFFZFLF7mBS3DDEvqgjMIK5E9js9KrC8u7IZ+IVegSgUMgKv36jCeXub5gB/zfjft0QcnMcRlkL6Pn9JuAyDHGIJtmAfs0IdNm07rDfynEPYxBnhs0LSwZ4kDsEMsf9M4BSIA/hz4MR+4eq9+jrOjrnvSlikyw74dz+tfYgB2QPC0vjfpHvBe+mL92lpinCSLjhK3AHtJ5p+nFbh8o/586Q5t6lb++kltHqXcsEcb8xaGu6v3SgyDKQAwGQITH9izMDTOU0iRVWRh20yux7HIklh/r7DvcDcIEhvIvNi+l7QxawnbWbKl5QSUMAQmRIag6Yt7kixs2VmT9k1kvGYaJE19v3xGN/7VDv3ussekdFnxuGRl5U4pXa55UrJy3S4pLu/4mhSXG3ZLVm78umTlpj2SFcAXF4OggRAYMhy2glMkLniH42JB0vExWS7HkrlQWDccF7LHxMVSaXEkn2BcyCidLuwrEhc2WLJNlthoiWK7zX3pGYWtNtluM9lykx3owp7DO56XKPHG670gGA+JLVA6PloCBTseOiOlC/CwEmLuEqj46wW4DqsD65rbNk/bKBZeuV1LL39Ms5fu0NG4rNypo8OUv92lo8MU5vwY6sYA/EPM3/nk88N4gYcthMx0K6TMGqaQSTpLYY+RUcpXXtAJtuQcBEGsQM5lfXDWkiQmPTZJR5sTDLCa17/WoW2W+bpRUGhVZaUpAonHWdD7ih1aCQCxBg2CAJDAZxwfeITHWcc892aSPs/56XNpK5qQrh8ADrIECZExT2j6Wvbe6mRH+3xSjjwj5gVeBGCybcC429jGuetWMXTUxhLqcsNu/dCGwsnx94DQIEjWl1Hv07TvM5e4LRkK94MgQ2Ny6DWtfUXWN44DjOcCff6tSJX9WoUrcPmDejNODuYEsQB5DQATZwjD4lZCEO/v5pP6p6xzggyB2xgiZA9kDEDCYsw7jJPEgqXtXD+6ArVQgHRWzBfiHHnnbv16+SO6Ga9xMgw+zGqPZA6wVRDkx8ymTQx/AWAWCDIMDpmva9Gz1VeiA4BstMTexPMKSRSYCxyUTqv6GvsdW63AlTP6Y9b2GvwIckYQAIg1CBh5qNsIQeasNp7UE3m9w1uf14a2PlRpAKID0wKsGGFITKhQK9ZNt/UBaFK7+YHj3Lh+ly6E0Jg9YXlbmOOLAch5tKttEHz8tP5i00n9uwEwa4gMCRPiBAFNeiZGrWs3AOLwSdJpvUY4Cq/tmRr1fv59V2BoBRjqMuQlTnDVTj0Zr+3tBkBu1CYIYskRK5g3TpBwGIbOQ3dMg7/YDYA0B6svSaDAkrlXPCavwZ08CVUn7nDVTv2EoOlrn9QzgC1uFwDEKmQInP7fug0QNOfHsMHSrBzB8ok1bcPrXgCk7cz/kUorHR7TBl28jTVSAIABPeAHBIFhunr9AMi5kw7BB0/qPQ+f0H8Pu2Jk63P6VRudIf0AyHNDOIytFQaG7hRJ//L8fakKEKLx9q9qmqVzweM7oxu73XAQAPnOpEKQ4RorR2zJ3DAQJCZw63Oa6abtJH82CIC0PfYMu1Nkkp+GGrbtsm26DacHAFy2TZ/hge1WTQDI3GC3IXB8/iRCkJUfD31L/zXq2mGyx7Qt9i0LAJNz7k/2HT4/6XuqxL8Xfz1GBa7crLcw5E2SKRy9dov+tFd1yD6TBYB8f5IgyHwnoS8kUigigULbQmKyAJAlaaQOIy7Q5gN9pUivX6J/XogCeHhJtgD8wrzfZr2l34XzAJDrTAoEmbfD+rNMMr0gOPOszmLhDQqR4ZxJ2xy+33OTCYDJBTrmA8/qWFvzKfbT0/9WkALLtmgN8Fv+mH7LMHjQZfMCkOs1HYJYfw+e0IzBz45pCOIcwUmCdTcoRIYMMl97UXcP0ntS/p4HgLSZ4S+brjMcbpNOk9LfjWgHXt5Lt+sX5BQk3i/LWlUAiJd40BxgWoAmQxDrj8Bncgsa/OwYQxDrD2vFAqUHQbBNVmBeAFp8IENh0mj123Q9/az5e1dgoAI29E3g9xMyTw/80pIlS4YFINduIgTJcoP1FydWNfjZ0SD4uW/qo6Yhnt4swdJtmQvMC0B0xFEUEieQTdqHwvZo+bEIBRjuMuzNOvS1e44CQK7RNAiy8dP64zoXA7CbJUhmmDh2zazGDBD8FyxG03dSj8MAEC3ioXDbU4pN6rNRebtIcXXZFv2QFPuXbtc+Eh9krcSoAOQ+TYEgKzbWz2kfafbTAIwhiAUYW3+0kR88lmOWFSNYi5yftQ+aeN6wAGQofGxeexkKEyjdtvChJvZ1revMg8gGSwn8ftFttUe/BgBAYgXzzgGmr9kECK45pOux/myfkV4QxPrr5tGNrcB+liCrQ7A00xpN0vthAYgGeIUtfyB7CqeXYE6STt6WkhUgtf3SR/QyACTgOe/tDIDsRzLqg1hnCOLMuP9pnTb42bEbBNPWn2nKj56s0VlWjHzxGc1i7dh3J+04CgDRIskaw8ZQ59whMmlPR0XtYajLkPeSL0vLZvT9lZ/X/8576yIByL3rCsENT+vv1x/XBQNffIwhmJ77S+tpHuEMEPwNITTp70/K+1EByPyqbbGJQ2SS/7OYlD6vXTvYYnPpFp0P22xmiPnr1oCiAcg96gZBhrMfO6Kf2ZabMfzstUEQUHbTKf4MT6+tH+41J8ieIoTRxI6U+BpNfz0qAGl/cIjM6zXiAz1tVtOfiIrrz/K2pdt0AuuPY5zjL09VAKAtmRt1CBzfty4QpE2fOKoZ9h42AHbbcziA8GmdzpLgFKhhKQ6CIKn1GTIDi1ibSXhdBADjZXJkjPEVIpPwZFTUBpKcYvlhAWIJDnvbsgBIfcYNQX6k5viwzdd7QZDh8YcO6l1ZdcRStDRavYbDyf4ivyLpQtbrNuW8IgDIWuFjZ/WOJI3+a54soSm9P+Z6Yv0t26oXL9kusbl6nrCXdNXLBCD3GicEuTeOj7uOSAbAXpYg4TFZVs6YflgrWVNpfeEZncpiWdq1m3AsBIBJBunF/YXndWbSdGpCXzarjtJUbP29dUZ/M0oDygYgdRsHBPmB3jGrjcDPSi8IEhpDiEteHS2dlg2F+1qCf9hAiTrlvUddzy8KgLTPrcC69nIN6xVbf8umdXAU64/mAUCWzxURBtNPrqohyND3Hw7pPw1+duwGwU8cGW53NyDAHB+B0xkg+KtJ2j+kSADiAY6tQJ8L7PdLavnfmO+zub9Rrb8qAci9qoIgXt87D+sHaw5ftP4MgBxjCDJEpl7DPlbcC4dIFgjiFe4WYD3svcf5vSIBSDtiK9A9wuPs2RrfO8T97dBR5v5G8fzGTWQVSRUWoN2zbAii0UcP6wngZyWGn70Gggx98zg+rA3pI/F+WTNLk4R1EmLeigYgmljiVI8LTD9h/j4oYKs+sACZByxClqoBSJ3LhCAbvq85rAt3HLwIwF6WIOExRezoxjUAm2WR6Tcc3vqcftNrpUkR/VnVNYoGIB7hZA+R1/AKYxFW1Ra/TxMUkKYu+5K+fOm2hVUfV2/Um4qotq0jLnsOMF3XMiBo837Az4pZgWkIMkQucjgaD4UHDYdZK9z00JjCAbhkyRI8wLY6hE2UuEf6ufH3LVWAjC8kO126RVq2XeuKkmFcAKT+hUFQmuJaQM3AFx/TEMQ5UsTQN90H8VB4EASbPh9YBgC5Jimy5uYlkiW0Ia1Y+hny9z0UINU98AOCWZOd9rhUx8cGQOIJi1wJ0nGTPm+KgCBew9tnte8DsxctvxiAvI4huG5Om8poKz9gvMIkVs0yHCZhQlM9nmUAkMeE9FjADwh66vw+P5w2/YllbgQ+A8Cl09rJw1dU+8cNQNoxCgQBGfF+wM9KGn72Hgh++JDmygy2ZWqCwOcsECTFflgqd1BvLKo/q7pOWQBkLpDhb7KL3Jmm/gdRVT+04j7B+bFF51n2VkToSyxaHQBIfYaFIE6P2w7ogsHPjga9+EhChCry9HEP9hwxK7DfcHjRKSJNxf1S99elATAJiQkbKJ3VeXeG1P1JqKB+QGrZ9ILzo98ev8NUhWuTUGFcQ+C4znkhyDzerd/Qy7cekCgGv/hoAMQznCXTS1yfUV7bWuEsliBOkaalzioNgMlewuYMIWHqKP3g3224AgypSHcfADhEwtNBza8TAKlrVghiFa/eq58b/OwYw4/XBkCGyXnW+g7SbdDfCY2xrTezWIJYjE3yDJcGwERYS5hK2vxJTSk26Bnyvy9ZsoSVH8tmFrK+XPG54tOs1w2AdPogCJL2/5b9+tH790sUg58d0xC8bVZHy5z36/Wgck8SJsRWYL/hMNtqVjFE71XfPJ+XDUCyRIds0fN6zVeG5OmZCTt36XZNB+tvq14cNudfP0nqCEDq2w2CODw+ckB/+d59mn/fUwvwGwRBQMl3+mlQ5t8I5WCpXFYIcu4wiRnKbEO3a5cNwLAyZF4v4AzBKdKtDv7ZhCtgw9/Lvlhs7F8sW10BSB3TEHz/fm0Cfjc/JQHAQRAk3o/g6Li943jN0JYhblYIEiNY9xi4sgFIP/kweBxPa43uiccXzy+FOa8yqlZnANLeGIKr90rAz0pfCH5DL1fp9BjUNxYkPSkQrAKAi8Ng9wYPerwm8+/s8hasvxl9v2jvrylWdwBST6y49+zTeQCYBYKExfzh/LVlBDubbnmP1IU1wGSRzgPBug6HqwAgMYDmDZ6b16a8mvv5DVaArCbLN+sUAHzr5vJCAeoOQBweDHtv2rMAv4wQ3FSlxzfrY0adCHzOA0HmBOvoGKkCgOgK+DwoOusTNkHnXblZb7nsS/oVHuBR9vwYJEkAYJJav04WEysCGPbfsFs/BH5WDIC9LMHVe/VoGc6iQTpm/Tt1s/CYQZYgK0UoeIfrFiJTBQC5B4HQc+wcN69zbKieVWc/r+EKkO7qrZ9P1v4+qDeX1ZxaAlCaIsiZOL8bvy5RDIC9LEHmA9+9V18va6qgSP0Z2pE+CwBmhWBworDPcE1WjFQBQDSP1wb7pklFPoV1vpY0xbAXAF7+sI6VOZyrGwCvfUBvYHnb9bv0yxt2L8AvCwRX79XholKElf1oAA9iBNmIKQ8EWTHCPGKZz0PWtlcFQNpqiVI9HCZr7zT8vJD8YEbfB4A4QspsTp0ASLtv2KON79ytXwM/KwbAPpbgYbzFZepUxrWBIBlhckLwN8wjjjtJQFUARHfCYXwesIwnsKbXJN0V83/LN+nVMuf/aH4tAChNrfy8/vcNu7X/+l268I6vXYTfAAj+HsuvifBD+2EswS8+I808KwHOIhO65v0pGABJW1Xqet1k72CfB8zbQw0+H+gBPyBYZO6/bpLUAYA4O1bt1FnAFxeDnx1TluDvmfNryrC3m/b2GZZg3jlBIEjA9LicI5UBMJkHPDavXwJbXxZnT80EHxn2Lt8kEQZTtkcTAJJmfxzZYJjfsfm+63ZJVgZB8KY9wvJ7tAkOj6yPKRDEO5wlRMa8w0CQeUECvqueFzQAHjpTsgWYbJ4+lyyL83jArE9UQ88jFIX9fgEge4CU3YxxAZAh71VPaJoh7zVPXoTfIAhyPvOEZf/HULbu3a7P+tescYIpCP5m63OaqTJrSpUARCtLkopDpIiNrLrp75/VQAGsGtJfAUDS4JddpcoBiId7Rn/DkBfwxcXgZ8e0JYhzhBUeVVs7ZfdBfH3ahqeXbTazhsgkw+HFITFwiq9ZxuuqAWh7hRyb1z9jLZfRJr9mDRSIHSBFZ3/u1jwAGPYaqWBPEODOhk6EuKzcKVFiAPazBPkOw+VaBWt3E7SAz4ALa4ezJFCILUEbEm99XhvKhkTVAPSA6AIerCZcAuhV5QBBjyoAyI8FR8e1T+oZoJdsxB4AmAWCrAap4j+DWj0f0hQOjiyptNIQBITsS8L30b6MdlUNQAKiE0fIa54mv4werck1r16v21c8JDEMrsLDWTYAaQNOnaWP6GXAZ8UsQDv2sgSB5jjz+Y37saDtWZKqpiG49bkFBwlzimXMDQLAvd/RYZwgT71U3lp10x+LluEvnmCGw/a5HydMgSs+q80AsOwVICZbWQAMyRxmdCNzfZc9JlEMfnY0+NkxhiDOjrd/VdNV/CdgWtT1GHuI+6XXT0MwGRKHuUGG1DhZCmujNAUA93+nGgDi+LAVIaXGHRYmkF8otwL8r3r5Q9oXLMAKPMBUsGgA0gYyuFy6XfuWP6bfGvzsaPCzo8HPjkDQ5vsm2dmR9+FAC8JdmBccBoLsPvf4Ke0mvRZ9lPf+6fPNAqwKgNzfPMHH5zXbhrngtOYT/95SYAFAnAVVNBgAknK/iDjAyx/UmwNQH9HL7DRHMfDFR4OfHWP4YTGWlfy1Cj3LvgepsZjfGwaC256/OCxmTm2kulZsAVJXyxBNjsBxLwUcSTv/cncFGO4t36yfAsCr79Mt3c8q9tMiAEhMH8C+dLt+YeCLjzH87LXBz45Yi8QFNnVZW7G90v9qNiQmVMZAuPmkZIXlcr2Gw8wNAkJSbH3tRd097PzgOCxAssEwB+g7xfV/Phr7VyyoFQ/qHF7gqryeowAwgG+L1uCw+asd+l0MPXsN8Hht4IuPBr9VO/UT0n+RCaaxnVdxxRkCMq+Hl3gECA4PwsQC3HO6mjlA5LVQGLzBdd8zpeLHYTJux9wZALziczpfxhaY3VQaBoBm8S2Cb7t0CSUZ9vY6xvDjNVbfqp16suz1zt3aPSmfkRCBdcQsoQOEZgVyzGgJAsFFEIYECxlyDpoFWCUASYhKYtRj83qF/UImpQ+9HYkCV9+r67H+gGBVUMgKQCwOslQT0sJQN1h8Br742AOCAK/DEmS1yyO62R0doz/+aBhbg3kgmMBPX35BoTA0JnQGC6uvo6FqC1Ca8ljA0Z+VWl/hr9fq3Vc+EJIg/BQrq4rKDgIgqzcYji+d1k6y04TECSRP2JZYfTH87HUPCAJA4gHZ65jhfhXta9M9sN5IqMDcYB4IJnOCixAEhrte1H/gNd7xnN7ZzeEwDguQ+crj8/pXzwozoU81QdAAkKFlVZlOACAbL8VeYObigrW3XeuWbdWLydacAXph2VwCwDwQxGJcuk0ngKnP9ZX3AAMmVoAQPM2w2ECYdThsliDHr5ySnrv1MrgAACAASURBVPi2Xtl1Wt/DYYJVaBb7OABowdAkR/Vg6PKeobFd+apP604AeM09OlNVthMDIHAK65C36Tay0YQNmaYlQmSAXrrksQQBOokdqoL62DqwRjfGaiNuECdJXggyLDYQAsEEhMEqTFZ/3AoMeb3rxeqcIARyEwKDBUhITI3k9qqMrIA0dc19ujcZAp8iJnDkaw64APcg5RYWYBjebtcv2IXOoMfRShqAWSxB5gqZM/Th7oCOKPHPDItJjkAANSAc1hI0CNqRIXKwDl+UGCoXusqkhx7cw/ICOgB7iNTkj1d+Up8FgKs+qWfLGCYyfAFGZJwOSVc36xTD2wBAIJgUg176mBWCNs/HMLouu5g1+bkYue7SFBYb84OAMCsEe1mCT3w7DI0ZHmMVhmHy7tN6ft9L2sicIc6KMoAYL4fzxKgjPxX1uwDrgAHgyk/q6KgAxIPHkBMI4W0NCQm26QSB1iHO8PMSmy5RDHzxMQ0/e98PgoAPizJsZn5Qf1Q/hdtdI+btWAoHCMkknSFYenEobHOCZgGmIQgIKXte0qtYhwZEUtgTvsL8XV+vcoau4fssg2MO0NcDZxDMTrn6Hl1S9wKoVt6vfVd9asECBCJ8lqewhOyybboNSzLM423RDxnaAryQYp80+5sugs8AOCoEuYeDz562+h+xpAAhWaSxCAFhlFSVNPuhdPMOA8CBEDwtER8Yykt6dfa7+jWZXJgzxEoMKzrOaAVgzFtsCHxsXnvzfndc54/9iXjbWp0btVx9n87lLVf9o87lKQRAA8Bw/EedIx4wT+F7LKOjxMCz14Aufh0DcBgI2hwfkB71f/exPyQtrAAWIUNj5giJ/ysSgsEaNAgmRxInWAGK6UKQc4byGhag7RKX4fws1yz1nLE/WsDv2rt1vsiyaoPOF12AH0PgYAVuCKtBWBGSuYQg6gSAVUCQEBnmE6vyWI/9QZrACjBXx7wdCRZKtQQHQJDVHd3K3Fmd7yjzugjA9N9q+n7sj82qe7SiqMIStSKuxXXiwjXjIXD8t6yvgRGhNAxH2VGO+T4AalafHYuyBJP5wPOAkKG35+4b+6OeuQIhocJJvQfwES+Y1TFi4TFZ5wTT84KktCKmkLlBlrPlLsnucMwF5v7uMPcr4DuZO6XtJ+IEwfrDCTL0kJJ1nNIUIS54fFleBxTJM0g8HkPqNAjTQ+FhhsMhfGZG3yfez0FY3ycZ8BEfyJ7CcaB0ESEykWMkBE8THgPsCMwuwjPMkN2dIPV9tkauGc4LA+CoXuDXVUaaAkxYk0AKIJpHGCAWAUEsQkBogc8Owtf1wtg+MPARGG2JE0bJIpO2BJlDBHhh97YzWsH9AFaRDfYwmCLVrOG1CIQO83+f1LO25KisamJhst4YECZDYjzFr6ZBGIfG2GsLiUkf4xAZswiTNFd/UlY7/Lr9FWB+lkQJ9z+t04CPrTatGACHySJDhmkKIAR8rNMdetTSvwmLf+U3YV5gD4RelGVCXkhTDFUBYJVL4d66WdMBgMwZzuhG3ptlaDA08MXHNPzsfQxBlssBQlsDXDbUJ+RJKKQZaL3mkK7/1Dd1eP1xXfj0NyWKwc+OeSAI8LD0CJ/BcfKVF3QCAPK+kEoPuAgOG5bC4QV2AA4Qq4l/JhlCAOA6/biqdbMBeJsWNmEK/4NLU1iGIXg6WRMMCGP42WuDXvoYQzB6fZ6MMoTMNLFvmlRndpIjR+D64zpn4IuPBj87DoIgQdNffEazWJIhg/Qf5pkZ3vIZq0WqAiDrm31nuCY9iTnrSjosAIgFVlU6rNcBMKoz85AAi1UkYV6P+b1oyRyv0/Cz9xH4QiKFxeQJrA/ernVVAT5qzsS/ZN7tc9/URz92RD+7/7hkJYafvTb42bEHBP+J3IBhI6WDemMsoAEw2WekEgsQ+JIOP9ka89a4Pv56AhTAY0tsIcHTVSUQ6AfAWFKATKgL4TXp9cMGvfQxDUHeA0JSYxE6Q2qssueN4jZM6mtghKeVeT6Guwa++Gjgi48GPzsCQeYJCY3BUxysvR6ijQOAnhC1R2dMyschvjABIEvhqmhXVgBaXZhUB1xsexmWwI2QQCEkTdihTVVZu9aGSTpi9a2b0yaGu2uPSffOXSwxAHkdw89eG/xIohqGtD0SoKY1MwAmy+YqsQBZypYsq/OU+OkOmYT35ONjuR1WINZgFW3KC0CrE5PsrD22TNF5hsNmCdqweNmMvg9U+VHZ9f3YXwG0wsmB1Qf47joiccwLwbCz3Ek9gQWZx0k1DgCGTZHO6rxvitT/2WjsX4mbu2adfrxyQ3XbYgJAls1d/rCODTMcZZ6Q2EIDYXoYbO97DYcNgliDzDX63ODgxxdnwCeOaMM/HNJ/Aj4rBsAsEMRiXD+nfewzTHzd4Lt2nmEAZP1wVU4QVo8cOuPbYnb2xAS9Y3hJCAwAJCawiqaNCkCrYwDhDq0kCw1zhAa++DgIgswNkprfPcWm6uuPeHg/fEhzaw7rwprDF+GXFYLMERIak9fiS9dkHABkVQkA9I3R070xIe95qFgPnFiA01U0qygAWl1ZghcSrm7ViyEYOsoqDQwHQZDtNckykwRQ57ZMrB6TduQ/mA8d1Lvw8AI+KwY+jlh+djRr0OYEg3PkaZ0mlKWIZKUGQBIoVGUBPvWSpskmQ1qtYUYrk/ZMTGR7WA8MAItIippFoKIBaPdkKMuSu5AyawgIBivSh8RBToa8d8xqI1bfHQcvwq8bBA2IBkCOQJPwGBwm1j+jHqsGIMN0wAcAAeGo9ffv11EB1uuu1+1hCFxRMHRZADR5cewwP5geFmexBEO4zLQOVhUSZHWu05E9PW6f1T7AFxeDnx0NfPERq++jh/UEw+ai22QAJItM6RagNMV/AuxOBwB9R7iie7NG18P7e83deg1vcBWbo5cNQKTFuxiGxWSLiazBLBBkSIyXGI9zjbqpkqrgoLjzsH7wgdlO+BkIDX52jOHH9xgy5/Hs5mmUAZAsMqTYz/PdYc4lBpBU+6Tcxxs8zDX8Ow1QIKTurzAU5qrPjOYFziopPxji/dgUPbYGs0LQ5gW5TtZ7NvY8acrm+4CfFQNffDT4cQSADJM/cVQzWI5ltr9qAOK0AX7EARIPWGbb/NpjVIC5M0Jhrr5PYjhcdlWqAqC1g8l8rMGwtC6xBrNCMITKbNGasqwaq+M4j7Ttpj364K3f0Mu3HrgIvywQLNvqi3WpGoDsI8IeIyyFK3IuM26Tv66BAni3cIAEAN5X/mQvACQN/7BxgMNIxo+HeT1Wk5inODMECbHZps9UsW/yMG0b5TuEQb1nn9bedkAXgJ8Vg58dYwuQ11h9zBOWMdfXqz0GQJbPlT0E5l44PgAgjpBh4hZ7tcM/r6ECJEYFgOwPXPYPfRwANMn5weMpZkld1hAZ5gRxjjCUnqSgabR4/35tAn7v338RfoMgSDA00OT7pmsVxyoBSNgO22wCQHaVq6J9fo8xKkBWGAB47Vr9W9ke0HECMEgsTbEMzobEWS3BAMFp7ZwECNKG1Xv1KOCLi8HPjmYBcsTyu2W/fsRyuHFsPl8lAJnPxAHC/iKsBhnjT9NvXYUC5ggJ3uCS1wSPHYCJoHi8WUUSEqhueX3AtC2Z44gVaJYgw+gmp94Hfu/eq6+/7ynJShYI3jaro1UOedPPvQEwJFMo2QuM19c2XHcHSLonJvA9wxmWxGEFlr0kri4ApBuBgXmJs1qCgLCREJSmDH43PyVZGQRBhsgfPKDpcTsCACBL6qoAIEvgsP6IAyQecAJ/8t6ktAJvu0ePAsCyV4TUCYBogBeUecGQKiujJWgQBChpHev63uC3eq9EMQBy7AnBb+hl5vvq4AWvCoC2AoQd59h7pK796fUqWIGr79MtNg9YZr48A+BIW3EW3HY84awFxjmSxxJkxUkTIIiFz5zfTXv0ewPgIAgSFhMCm+sSBylNlW0BAlmSsrIPCQAkFKbgR80vV1cFqpoHrCMArU9wjrA9QFYImne4bM+51W+YI3X7u72aBn437Vmw/gZBcPVe/Tw4O7gh+z7X4J9ZgCRWLTMMhs2Xnvi2XqGQmr8GTfcqVKEAPxSbB7zuLm0q6551BiBtJtcgHuI8ECROsA7DxHSf0acMYYHfjV+XAOAgCOLpZUlc+lpjf59YgGUDkD1JvnLK5//G3t/jqIDFA5a5TWbdAYjubA/AeuCsEAxL7f6wYqQu1lJ4dqQpVni8c7d+Dfys9IPge/dpvqqtEfI+31VYgDg8Zp7VWQAICPPW0c9vsgJkhrlX1197t86HNPn3lGMFNAGAdGPYnS4PBB/Ry8wj1uIRkKZY/gf8bth9EX6DIMhQmaWDtWhDuhJlW4DSFENetuRk72GGwukq+PsJV8BS5F+ztrxwGADIVpx1coL06ta8ECSBQh2yyFAH5vGAnxWDnx1jS/APw+TzDJM5MmSuIwSrsAAJf2HfYZwg/Xao6/W8+OcToADhMACwrGVxTQIg3cmQMM+cIEPnslfT9HvMuPeqnTr7jq9JFANgN0sQZ8gNu/VDvL2r9+ow72sLwcQCZLe5MpwgzJd+5QWdYN9hNnmv1XRGvw73vxWrAMviWBHytrU6h2e42KsvWdI0ANJ+HCN5vMOsMBlHeAz3vOar2m/ws2MvCGIlmsX67r36szpD0CxAAEj6raKfSxv+AkDS+Bd9fb9eQxQoexjcRADSdcnexL/I4hgJ4TE7tKnKoSSxjDfs0cbrdkkUg58d0xC8fpd+SZvix7LWEIwswDIAuPV5bWDPYR/+xk9ES19ffZ+mwzzgPTpTtCXTVADyKODkyLpiBM9wlU4R7nX9Ll0wAPaDIM6Rxbql4vzqCkEswLCtZgkWoHl/q9xys6VoaUazzRscPMIFJ0doMgD5EYZlc1t0PosliFOkirAS7rFqp35yzZML1l8/CAJJHB20pdfTWEcIYk0DQHadK9oCJPvz1uf0G4p7f3s9FS363JIjYAXiFClyQrjJAOQRIOB56Q5typpFZuk2nSjaio4fRaYsrn1SzwA/KzEA05bg27+qaSb842t0e103CALsTxzVkTIAyCZLbLdJDKAnP+j2NLTws6s+rTsBYNE5Ahle2zacjdxrNcmqkmzIPnDfYeYDw0qRPhbXsI9XsEi36TMrd0oUA2AvS/Bvd+loHhjXCoLSVBkAJPffppP697Db3PPaMGxf+PcmTAHy5QE/IAgMi2pe4wGYCIE+vcJjGB7H+QSZN0w7HIrQk2Bnrm0A7AdBwl2G2fWvLhA0C5B9h4scArN/MTvNAcHHT+sviugXv8YkKCBNWUxgWBpXUOqnSQEgXQzUemWQSUOQ+MDCsuxIU1yLeL8YfvY6bQl28/jmeURrAcHEAiwSgAx3v/CMTgFAYv/6zYvm0cvPnRAFzBlCXCDxgUU0a5IAiB44RXrNB6YhyNxhET8yHAJXPaHpFY9LFANffDQI4vSgjqP23bghWIYFSLzfwyf03xQcIaNq5N+fMAWYLH/b3TrOMPi6u3Q0y+T5IAkmDYA4jMgL2GuTpRiCRQ2FbehrAOwHwVU79WQR/Ua/jhWCBVuAbHxEfkF2mfv8SR3j/aBn1//eQgVsZUhRITGTBkAeCZaf9dtkKYbgsq16cZQ9RWzoe9ljEqUfBBkiF70sb1wQNAuQzdiLmAPE4nvoW/ovrD9f+dFCsGVtckdIzMe1b9S8d5MIQLQMVhl7CE+/foMlAGgQDF7h7VqXVf/4PCCAR9nglwZgbAlibVKn+PtFvR4LBBMLsAgAkvaemEL2F7n/aZ0e934nRfWLX6ckBUiXv7g+eMTA6EkFIPNybLAEAAdBMARIb9Zb8nYX63YBWwzAXhD86ye1ucwwo6ohCPzvOKTZIgBo1h8A3PC0/j5vP/j5bVIgiXvDExwCo0e0AgGgbb5U5g90HF3E8BRvbxYIMm+Yx5rGEr90h45e8uWFoW8/CDL0BVBla1AlBIsCIJpj/ZFZ2q2/sp+QCbq+WYGjzgVOMgDp7ngo3M8SDGuFcwxRWbvL8BkA9oNgUY6WrI9uVRA0AK45PNocIHudrD+ucwDQrb+sveznhT10sQKvu2vBI4xFMowskw5AhsKXfUlfNiuwFwQJlM66TM4sS4OfHdNWIO8Jj6nasq4CgkUA0Dy/bv0N88v17yzBI4wFSBk2LnDSAchjwooL8gcOgiDxg5dt022DHq1l27XOoJc+dkBwi35YtNd3UN3s72VDsAgA4u1df1wXKO75tZ7zY2YFiCcjHhArEGtwmHCONgAQQS1AOgMEv99PR4CG0yQNvvT75Y/pt1lgmrmzhzixTAjGAPzgAU3nrR6eXub8SKhK/N+wI5i89/XzJ0wBVoeQLTpA8D7dm7d5bQEgSQeWb9apGIDdhsNYgf1WarB65JLtUijJ/F8afrzHQVKHH3VZEDQA3nFQGgaArPklkwzzf4t7Hud9eP18V4D5pbd9TNMAkGQJedPmtwWAPClph4jB0OIC7UgQNfN86aeLTZmC9WcA5NgFgjg+LLV9+hrjeF8GBIcGoDT1kQP6y48d0c8slRZxgOPQxe85IQowx3XNOv0YCL4tZ1hMmwBIyMWl27XPwBcfDX4cu1qB0hRxhYvWXx8Ich6AqNPjVTQEhwUgffDRw3qCJApAEBjWSSevS0MVuHq9bic4Oq9DpE0ApGuxzMgYE8PPXhsE8QgTPxjPBXa1/rpAEAtxmDRXVTx2RUJwWACa4wMAMgyuot1+jxYowHzTokNknX6c1fsIAAmobsK+wEV0Y1ghMq2dl31xYYWIwc+OBsG0R5i5P8sp2NUKTIbDLI0rop5lXaMoCA4DQJKd3nlYP0hSaB3xbM9l9XJLr7vqHq1gHjAMhe/Ro/zYB0nRNgCiB9tqYgUOhOBWvch/LOb5NQBy7AbBYP09qDcP0nzcfy8CggbAD8xmc4Iw9CVpAkvn/uGQ/vP+Oa0Ytw5+/wlU4Jr7dG+eobABEOux6oDdcclPOwmOBoADIHgexwlxf2YZ9oMg542rTXnvOyoE8wKQoe+aw7oQ1g4f8VT3efvLz8+oAOEe5AwMYTEMhTfqz/t9tY0ARI/YCuwHQdJlpVPtd4NgU6y/+FkYBYJ5AIijg6Evy+Y+fEhzefZBievrr12BTAoQCrM4FP649vWLR2srAJkewCNsVmAvCDI3aNZffExDsO5zf70enGEhmBWAPHu3z2of8MPr60PfXj3hnxeqAF5hPMIMhxkW99pKs60ARGz2ECEJwiAIxuCLXy9CsMae3ywP1TAQNADeeqDPHKA0xZ7HDH0pnuwgS2/4OYUowKQzmygFh8hanWPFSLcLE0RtKfbbMgdoOrCUkAQIMQB7WYIx+OLXQJC4P7tmU495IZgFgB86qHfh8GC1CLF/nua+qU9HQ+vNagbLGEOgdLf5wDYDkG4lrVgIeUkcIgZDC4uJjzH4Fl8/opev3K6lDX1EOqqdB4KDAMi83y379SPgx/wfITAdN/M3rkAVCnSExtyt43FwL/dvPQA36k04OQx88TGGn71eBJ+l1d8e5lgHhhtV0ddF3CMrBPsBkGfstlkdJUTGQ16K6BW/xkgKYOUwH2jxgfGuZG0HIHOjhK+89fMLITExAHlt4IuPEQRDmMxInVPDL2eBoAHw/fs75wB5tkiOAPxuO+DzfjXs3vZViYfV4gPNKWLzfQAQMLYpDjD9BLDMjcDovBBML5dLX7fJ7wdBkGdq9V4djgHIM4XTA/ABwDtmtTFLMH6TdfK6N0SBEB+YOEWwBrEKqboDcMkSfriXP6R9ADAPBJsa+pL1ke0HwW4AvGmPPnjrN/QynmFCX/qFX2Wtg5/nChSmAHMzFiRNDkGySDsAF+RlxcfyTXo1KwSxGCfF+dHvAesFQQPg+55aGALj8TX4Mf/H9/pd1//mClSvgDQVUmcle4kQLG1e4jYPgekI/nPAGWIAHGQJEj4Tz6VW35nV3bEbBAmzYggMAN+7T/Or9+rnDId57Smuqusbv9MQCrBSxPIHJvN/rZ4DNAmv+Kw2xwDsC8EtWmPfa8OxGwQB4M1PSUCQQtiLr/Row9MwahulqbAyY4zHODzGnCBhwnqMdRqrJtHKkIEQZPhrG6m3Ra8lS5akIciQ1wCIBbiY2n7cmoz6+/Tvl6cA1hdZm+tQYiuQ4fCodVp5v/ZVVXBaFF4e1rF4HjAGYUd4zEJC1YOsJa5Duear2p+33LBb+/OWd+/V1xni3rRHv1+9VwJ+VgAgf6fgACmysHF6nuJWaHn8GunKTByzJI1QlGjoyfCz1oWlclnK1fdJg8rKDVK/ctWnpG7lygcufs7rfmXFQ1K/snyTlC4GOz631+ljBwQHp9LqSKKwuG54m8TrbvkEw2dd9hixfUc6ttx8TOL9isc7y8qdUrpc86Rk5bpdUlze8TUpLjfslqzc+HXJyk17JCvAz4oB0I42HGY+kIJHOF0IkYkLq0XSheQJcSGNVlxIqmqFvUWssMucb7E5EqbK/TJOiOvu0ia8r3UokRNkEcJ81q9uJFAoq1z1GU0XWd66WdN5ClZlLysQIJI8Yem0dqavyXrgKgsbructb/+qpvOWv9ur6bgkFuAiAAEhc3/xOfaagOgiColUs5Z1c9r08AldWu6v2K8+nAI2NzLct4v/ljQFjLFAGQJbCi2Ow260Xnwlq70i66fZRL2XJUjwc1vz2RHqwlAXS5BjUgTwqu0lv5srUJACBkDCYMLw3HaXI4MMKbUypNUvqCq1uAzTFIkVGIbJ6WEwll8tKlphJQgUJ8j5+l36JUPiG3brhzg8mEPEAnQAVtgZfqtiFYgBGOYoCZGxOEHyCd6ne9sS72bKXrZNt8VzhAZBhsbLH9HNdl4bjvQ9y9veuVu/NviFAHBpijAYrEEHYBuehAltYwxAWx/MPKWtGMFhQ17BdBaZCZUjNIsf+IoHdS4NQVZ/dEspNqla0OfMGV6/SxdwjFz7pJ6x9vOfJRagA3BSe78l7eoGQJrOXBjgM481QCSEpw2yMMfHXF8MwPB6s061whpOVgz97S4dxUMM/JIQl8XlbQ7ANvwSWtDGXgCk6SxmX/lJfdZSaRE3iHOEh3/SpcHTmwZgG+b/6Fu2CmCeD/gx9L1hT8jq8idxnxsAGRb7EDhWxl83SoF+AKQhDItDPkHbb3itzjEvOOmZPnAApQHI3GCjOjdnZelT5vtwdhAryBHnRzdHGM8FQ2AHYE6R/fR6KTAIgFZbls6ZcyTMC35c+2w+yM6ZpOMVO7Tyis/pvEGQOUG20pykNsZtoS9ZTcJ8H/BbtVNn0SA+J37tFmCshr9urAJZAUgDbV7wdUPig3pjYwXoUfE4HjCZ//vpJDqCsO7wbK/aqZ+wWgQArtqpJ2l/D2nCx2YBMj/oQ+B+Svnfaq1AHgDSEJwAIT4wGRIDQ5wllz+oN9e6oTkrR7qn5Zt1iiV1APDyh3WMz3Jeptan02esJln+mH7L8jmGvMu2aE0WR49ZgAAQT3GtG+qVcwV6KZAXgOE60lRI6nC3jpuXeNFBMkGQwOlhAJwkB0iA+yO6mfyHtm6YEJc8CV4dgL1+Uf55oxQYCoC0UJoiXCQ4RGJr8OPaNynhMld9WndaUgUso0Z1bI/KMtfHEBerj0QKwerbrnV5l/cZAPEUuwXYQ2z/uP4KDA1Aa5o0hYOEOEGzBllLDBibPmdGOEhY/UGq/Bn9jTW5iUf6gt3vLt2uX5BFBgCS1To4OlijnvMfc4A4TRyAOYXz0+ulwMgATJpDCEU8NwgM8RoTN9jUkBlbEYI3uKkeYObzcHIs26oX/2qHfgf8gCAWbV6rL35ysQAdgLEi/rqRChQFQMvmzMQ6ThE2XQpZZnCSsIrkXl3fNCcCWZ+T8JfGARCtsVov3aGjWHvkFFz6iF6+7Ev6chHhS24BNvLn7pVOK1AYAKMLE1oB8ACfhcwEbzHzgw0CYRMBiPYMa8lUDfAAH5Yfw12A2C2oOeq6zC/NAiRm0OcAM8vmJ9ZNgTIAaG1k6MsQmKFwGBKvlbAMSb0PCLOEW9i1xnFsEgAXLb4U+MKa5kd0c9HTEGYBOgDH8WT6PQtToEwAWiWZa2I5XQzCxDI8GuYIt+hP7dw6HZsAQLRlT2OGumSrJq0+Fh/gY+neKPN8/frCLcB+6vjfGqNAFQC0+UE8kThK0iDkPSEnzB/yw6qLeLUFINlaHtSbcWTg3OgGvrI98G4B1uUp9XqMpEAlAEzVEKsEy8/mCG3DJcJnQu7Be3V90UO2VBUyva0bANGEeTz2Hgme3Bn9jg2Wwj4l23QCb29ZFl9aMLMAWT7nc4Bpdfx9YxQYBwARhx9QWFaHs+QePRpiB5Pd5xgeByuRWMJ7dMm45grrAEDaTjgOMXxm7S3dEqAnErSGDZoWnBsd6arKfgDNAnQAlq20X79UBcYFwLhR/JhCNpL7dC/gCwBMYHj1fTq36pN6lsDqsJn7A6rshz4uAGLpBeht0Rq8t4Bu2bREwdpjfg8gUr+ivLpxf2R5zX9glz+mWQdgFrX8nNoqUAcAxuIwhAshNGSjXqcfm/eYYTIwBJAkaeUcMpaUCYCqAEgbaAvD22Xb9BksvRh6y2b0O3aqI4YvhLLUwGkUA5CECnEf+mtXoDEK1A2Ai8JJU0AhzBVGMLSN1wEjw+aVn9TRsOzuXl2PY6DI4XJZAKSO1DUAj6HttA4mW3G+apuvG/RCZupHdHNITzXEkrVFPQt+YQAkmYIDsGBx/XLVKVBbAEYS8GMDAFh91BcrEGvQYMhx1QadB4gMl8Om7et1O+cDGqxKhtnRJTO9ZP5xlJUg3JN7UweCk/GAk1WGNFsGPNtxjmOw+mb0/XDOjG6kzbQ9U2UrPskBWLHgfrtyFGgCABdbnmwszxwZcAIoOFC6ATGGYjJsPgoYCbfBqgSOXAM4ETIS5t1m9McEFBss+ftV/xgyQS8uhQtQTooSnQAABEZJREFUe0BvwIoLw/WNehPXwFrkmnhiuQcQI4dgiMf7kn6VJFUIuQXjLNP8HSuPtjDvxzUX21vjFw7AGneOVy27Ao0CYJdmmZUVgHifbqE9YVi8Tj/GSly5QepWsBiBW/A+M9d4j85gPVL4/sr7tY/XJEK48gGJ12yYzt94jRUHvIIlt1k/TbbRfNXSZ8VH4Bf+vlk/BYpXfFabAeUi8Go0tO0icdePHIBdZfEPm6ZA0wHYTW+cCiHo+h5dwioJLDKsvwBGvMxr9W/ADwgCx6s+1b0APgp/t9e9joDSIAcYAR1WIPemDsFCXLA039Ctzk37zABITkGfA2xa73l9FxWYRAAuNi71AjAy1GVuLSQGvUcrgBPL9AAVzhQ8zFhoV31G01h8gA0AAk8+42+cw7kJWG/hGqTLAnJcm2Hsone6gdZdSraubx2AXWXxD5umQJsAmLdvbA4QS7Gp+QDztjnr+Q7ArEr5ebVWwAHYu3scgL21cQD21sb/0iAFHIC9O8sB2FsbAyAZpn0OsLdO/peaK+AA7N1BDsDe2jgAe2vjf2mQAg7A3p3lAOytjQOwtzb+lwYp4ADs3VkOwN7akOORZAg+BO6jkf+p/grwI2dlBJlWQuLS+le5sho6APtLjWc8BHRv1lv6n+l/dQVcgcYp4ABsXJd5hV0BV6AoBWIABgu5qAv7dVwBV8AVqLsCDsC695DXzxVwBUpTwAFYmrR+YVfAFai7Ag7AuveQ188VcAVKUwAAhj1JNui8zwGWJrNf2BVwBeqogAOwjr3idXIFXIFKFHAAViKz38QVcAXqqIADsI694nVyBVyBShRwAFYis9/EFXAF6qiAA7COveJ1cgVcgUoUcABWIrPfxBVwBeqogAOwjr3idXIFXIFKFHAAViKz38QVcAXqqIADsI694nVyBVyBShRwAFYis9/EFXAF6qiAAfDau30pXB37x+vkCrgCJSrgACxRXL+0K+AK1FsBAPi2tTrnFmC9+8lr5wq4AiUo4AAsQVS/pCvgCjRDAQdgM/rJa+kKuAIlKOAALEFUv6Qr4Ao0QwEHYDP6yWvpCrgCJSjgACxBVL+kK+AKNEMBB2Az+slr6Qq4AiUo4AAsQVS/pCvgCjRDAQdgM/rJa+kKuAIlKOAALEFUv6Qr4Ao0QwEHYDP6yWvpCrgCJSjgACxBVL+kK+AKNEMBB2Az+slr6Qq4AiUo4AAsQVS/pCvgCjRDAQdgM/rJa+kKuAIlKOAALEFUv6Qr4Ao0QwEHYDP6yWvpCrgCroAr4Aq4Aq6AK+AKuAKugCvgCrgCroAr4Aq4Aq6AK+AKuAKugCvgCrgCroAr4Aq4Aq6AK+AKuAKugCvgCrgCroAr4Aq4Aq6AK+AKuAKugCvgCrgCroAr4Aq4Aq6AK+AKuAKugCvgCrgCroAr4Aq4Aq6AK+AKuAKugCvgCrgCroAr4Aq4Aq5A0Qr8f0IFI69d+6W4AAAAAElFTkSuQmCC;" vertex="1" parent="1">
          <mxGeometry x="60" y="385" width="45" height="45" as="geometry" />
        </mxCell>
      </root>
    </mxGraphModel>
  </diagram>
</mxfile>
